<?xml version="1.0" encoding="utf-8"?>
<!-- Generator: Adobe Illustrator 15.1.0, SVG Export Plug-In . SVG Version: 6.00 Build 0)  -->
<!DOCTYPE svg PUBLIC "-//W3C//DTD SVG 1.1//EN" "http://www.w3.org/Graphics/SVG/1.1/DTD/svg11.dtd">
<svg version="1.1"
	 id="svg2" xmlns:dc="http://purl.org/dc/elements/1.1/" xmlns:cc="http://creativecommons.org/ns#" xmlns:svg="http://www.w3.org/2000/svg" xmlns:rdf="http://www.w3.org/1999/02/22-rdf-syntax-ns#" xmlns:sodipodi="http://sodipodi.sourceforge.net/DTD/sodipodi-0.dtd" xmlns:inkscape="http://www.inkscape.org/namespaces/inkscape" inkscape:output_extension="org.inkscape.output.svg.inkscape" sodipodi:docname="Ashy-crowned Sparrow Lark.svg" inkscape:version="0.48.0 r9654" sodipodi:version="0.32"
	 xmlns="http://www.w3.org/2000/svg" xmlns:xlink="http://www.w3.org/1999/xlink" x="0px" y="0px" width="404.77px"
	 height="278.51px" viewBox="0 0 404.77 278.51" enable-background="new 0 0 404.77 278.51" xml:space="preserve">
<filter  id="filter4043" color-interpolation-filters="sRGB" inkscape:collect="always">
	<feGaussianBlur  id="feGaussianBlur4045" stdDeviation="1.3037059" inkscape:collect="always"></feGaussianBlur>
</filter>
<filter  id="filter4031" color-interpolation-filters="sRGB" inkscape:collect="always">
	<feGaussianBlur  id="feGaussianBlur4033" stdDeviation="0.1474167" inkscape:collect="always"></feGaussianBlur>
</filter>
<filter  x="-0.035842676" y="-0.18403901" width="1.0716854" height="1.368078" id="filter3915" color-interpolation-filters="sRGB" inkscape:collect="always">
	<feGaussianBlur  id="feGaussianBlur3917" stdDeviation="0.51277473" inkscape:collect="always"></feGaussianBlur>
</filter>
<filter  x="-0.072333336" y="-0.10015384" width="1.1446667" height="1.2003077" id="filter3669" color-interpolation-filters="sRGB" inkscape:collect="always">
	<feGaussianBlur  id="feGaussianBlur3671" stdDeviation="0.69750013" inkscape:collect="always"></feGaussianBlur>
</filter>
<defs>
	
	
		<inkscape:perspective  sodipodi:type="inkscape:persp3d" id="perspective10" inkscape:persp3d-origin="372.04724 : 350.78739 : 1" inkscape:vp_z="744.09448 : 526.18109 : 1" inkscape:vp_y="0 : 1000 : 0" inkscape:vp_x="0 : 526.18109 : 1">
		</inkscape:perspective>
	
		<inkscape:perspective  sodipodi:type="inkscape:persp3d" id="perspective2518" inkscape:persp3d-origin="372.04724 : 350.78739 : 1" inkscape:vp_z="744.09448 : 526.18109 : 1" inkscape:vp_y="0 : 1000 : 0" inkscape:vp_x="0 : 526.18109 : 1">
		</inkscape:perspective>
	
		<inkscape:perspective  sodipodi:type="inkscape:persp3d" id="perspective2588" inkscape:persp3d-origin="372.04724 : 350.78739 : 1" inkscape:vp_z="744.09448 : 526.18109 : 1" inkscape:vp_y="0 : 1000 : 0" inkscape:vp_x="0 : 526.18109 : 1">
		</inkscape:perspective>
</defs>
<sodipodi:namedview  bordercolor="#666666" pagecolor="#ffffff" id="base" inkscape:zoom="1.4" borderopacity="1.0" gridtolerance="10000" guidetolerance="10" objecttolerance="10" inkscape:pageopacity="0.0" inkscape:pageshadow="2" inkscape:cx="248.26846" inkscape:cy="141.64003" inkscape:document-units="px" inkscape:current-layer="layer1" inkscape:window-width="1350" inkscape:window-height="718" inkscape:window-x="0" inkscape:window-y="14" fit-margin-top="0" fit-margin-left="0" fit-margin-right="0" fit-margin-bottom="0" inkscape:window-maximized="0" showgrid="false">
	</sodipodi:namedview>
<g id="layer1" transform="translate(-150.92954,-278.96649)" inkscape:groupmode="layer" inkscape:label="Layer 1">
	
		<g id="g2831" inkscape:export-filename="C:\Users\mr mahes\Documents\Birds\Aquila\IAF\Current Projects\Training\Training Book\FBIA\Inkscape bird library\ACSL.png" inkscape:export-xdpi="600" inkscape:export-ydpi="600">
		<g id="g4058" transform="translate(1126.2863,17.737848)">
			<path id="path4060" sodipodi:nodetypes="cccc" inkscape:connector-curvature="0" fill="#AE8D88" d="M-859.224,485.933
				c-6.779-4.011-17.07,3.275-20.356,5.714c2.885-5.442,10.049-11.653,20.893-11.25L-859.224,485.933z"/>
			<path id="path4062" sodipodi:nodetypes="cccsscccccscscccc" inkscape:connector-curvature="0" fill="#865A49" d="
				M-779.477,469.116l-15.836-1.633l-28.407,12.035l-21.621,1.005c0,0-5.324-1.978-7.015-2.494
				c-2.757-0.843-9.417,1.995-9.417,1.995s2.896,0.608,2.82,2.106c-0.107,2.151-4.306,3.475-4.306,3.475
				c4.118,1.211,8.513,3.803,11.735,0.538c10.154-1.107,20.951-0.34,30.957,0.028l7.07,2.525l7.071,9.597
				c0,0,5.919,2.703,8.081,1.515c0.715-0.393,0.963-1.711,1.01-2.525c0.1-1.725-1.515-5.556-1.515-5.556l-14.647-7.576
				L-779.477,469.116L-779.477,469.116z"/>
			<path id="path4064" sodipodi:nodetypes="cccc" inkscape:connector-curvature="0" fill="#AE8D88" d="M-798.068,494.955
				l-3.508,4.314c7.642,1.911,9.844,14.326,10.469,18.37C-789.335,511.74-790.068,502.287-798.068,494.955L-798.068,494.955z"/>
		</g>
		
			<linearGradient id="path3999_1_" gradientUnits="userSpaceOnUse" x1="-781.5226" y1="51.9047" x2="-703.7408" y2="120.09" gradientTransform="matrix(-1 0 0 -1 -246.9553 580.6991)">
			<stop  offset="0" style="stop-color:#93684A"/>
			<stop  offset="1" style="stop-color:#3F2D23"/>
		</linearGradient>
		<path id="path3999" sodipodi:nodetypes="ccscsccccccc" inkscape:connector-curvature="0" fill="url(#path3999_1_)" d="
			M451.653,442.23l20.708,55.559l75.256,56.063l-5.051-8.587l13.133,8.587l-18.688-25.254l-30.811-22.729
			c0,0,8.412,3.025,10.102,0.505c1.585-2.364-4.041-8.586-4.041-8.586s8.548,3.982,10.607,1.515
			c1.229-1.471-2.021-6.061-2.021-6.061C491.449,479.406,473.777,459.705,451.653,442.23L451.653,442.23z"/>
		
			<linearGradient id="path3971_1_" gradientUnits="userSpaceOnUse" x1="-558.131" y1="223.1703" x2="-762.1826" y2="120.1344" gradientTransform="matrix(-1 0 0 -1 -246.9553 580.6991)">
			<stop  offset="0" style="stop-color:#A17E60"/>
			<stop  offset="1" style="stop-color:#896950"/>
		</linearGradient>
		<path id="path3971" sodipodi:nodetypes="ccccccc" inkscape:connector-curvature="0" fill="url(#path3971_1_)" d="M449.973,442.443
			l-165.357-85.715l1.428-9.285c12.348-0.245,5.284-4.179,74.643,10c12.28,5.321,37.738,27.745,55,52.856
			c26.311,21.667,67.701,53.775,78.93,65C481.982,467.946,471.626,464.232,449.973,442.443z"/>
		<g id="g4053" transform="translate(1107.1272,22.223356)">
			<path id="path4049" sodipodi:nodetypes="cccc" inkscape:connector-curvature="0" fill="#AE8D88" d="M-820.905,485.933
				c-6.78-4.01-17.071,3.275-20.357,5.715c2.885-5.442,10.049-11.654,20.893-11.25L-820.905,485.933z"/>
			<path id="path4047" sodipodi:nodetypes="cccsscccccscscccc" inkscape:connector-curvature="0" fill="#865A49" d="
				M-741.159,469.116l-15.836-1.632l-28.406,12.035l-21.621,1.005c0,0-5.326-1.979-7.016-2.495
				c-2.757-0.842-9.418,1.995-9.418,1.995s2.896,0.608,2.821,2.106c-0.107,2.151-4.306,3.475-4.306,3.475
				c4.118,1.211,8.512,3.804,11.735,0.538c10.153-1.106,20.951-0.34,30.956,0.028l7.071,2.525l7.071,9.597
				c0,0,5.919,2.703,8.081,1.515c0.715-0.393,0.964-1.71,1.01-2.525c0.099-1.725-1.515-5.556-1.515-5.556l-14.647-7.576
				L-741.159,469.116L-741.159,469.116z"/>
			<path id="path4051" sodipodi:nodetypes="cccc" inkscape:connector-curvature="0" fill="#AE8D88" d="M-759.749,494.955
				l-3.509,4.315c7.643,1.91,9.845,14.325,10.469,18.37C-751.018,511.74-751.75,502.287-759.749,494.955L-759.749,494.955z"/>
		</g>
		<path id="path2594" sodipodi:nodetypes="ccccccccccccscccczc" inkscape:connector-curvature="0" fill="#030100" d="
			M258.295,307.104c-6.174,0.728-26.855-1.75-26.855-1.75c-6.21,7.947-12.769,15.282-22.729,16.668
			c-1.015,5.616,1.42,13.388-6.565,14.647c8.031,11.552,19.385,22.888,30.305,6.565c0,0,9.377-0.239,13.132-1.515
			c6.692-2.275,20.203-12.122,20.203-12.122l186.373,144.957l31.314,31.314c-23.305-8.601-45.674-21.413-70.711-22.224
			c0.905,8.278-4.512,8.125-9.091,9.092c-82.089,5.35-165.081-21.377-191.929-123.744c-9.131-15.083-10.527-32.744-29.8-44.446
			l16.162,5.556c-0.842-4.915-1.684-8.039-2.525-10.102l5.051,1.01l-8.839-11.363c22.084-4.657,14.162-26.109,77.26-9.485
			C269.051,300.163,264.471,306.377,258.295,307.104z"/>
		
			<linearGradient id="path3873_1_" gradientUnits="userSpaceOnUse" x1="-584.524" y1="289.6537" x2="-478.0594" y2="228.6309" gradientTransform="matrix(-1 0 0 -1 -246.9553 580.6991)">
			<stop  offset="0" style="stop-color:#9D7B68"/>
			<stop  offset="1" style="stop-color:#D1C1BA"/>
		</linearGradient>
		<path id="path3873" sodipodi:nodetypes="ccccccccccccc" inkscape:connector-curvature="0" fill="url(#path3873_1_)" d="
			M185.983,296.768c7.566,23.002,10.53,46.442,31.314,68.186l48.487-35.355c-1.393,10.84-9.834,18.743-19.193,26.264
			c-19.754,9.681-21.279,26.685-21.213,40.406l11.111-14.143c-2.329,13.295-0.289,25.716,0.506,38.386
			c5.033-8.823,12.931-16.345,11.111-28.284c5.043,10.121,11.793,16.144,20.203,18.184l1.01-61.62
			c24.281,1.931-1.556-8.938,95.207,10.607c-17.939-9.564-41.021-19.568-75.762-31.82
			C272.302,292.666,228.314,256.337,185.983,296.768L185.983,296.768z"/>
		
			<linearGradient id="path2616_1_" gradientUnits="userSpaceOnUse" x1="-432.8712" y1="266.9047" x2="-391.4542" y2="267.4098" gradientTransform="matrix(-1 0 0 -1 -246.9553 580.6991)">
			<stop  offset="0" style="stop-color:#CBCDE2"/>
			<stop  offset="1" style="stop-color:#552200"/>
		</linearGradient>
		<path id="path2616" sodipodi:nodetypes="cccccsccc" inkscape:connector-curvature="0" fill="url(#path2616_1_)" d="
			M197.829,330.299l5.714-10.714l-11.785-9.286c0,0,1.397-4.855,0.714-6.785c-0.859-2.429-6.071-6.071-6.071-6.071
			c-12.513,2.729-24.995,5.535-32.857,20.356c4.646-1.193,9.232-2.273,13.215-2.143c-3.985,1.639-10.472,2.026-11.071,5.357
			C179.654,322.125,187.527,326.456,197.829,330.299L197.829,330.299z"/>
		
			<path id="path2618" sodipodi:ry="1.7857143" sodipodi:rx="3.5714285" sodipodi:cy="285.21933" sodipodi:cx="-584.64288" sodipodi:type="arc" fill="#787274" d="
			M187.229,304.291c1.902,0.521,3.233,1.716,2.973,2.667s-2.015,1.299-3.917,0.777s-3.232-1.715-2.972-2.666
			S185.328,303.77,187.229,304.291z"/>
		<path id="path2829" sodipodi:nodetypes="ccccccccscccczc" inkscape:connector-curvature="0" fill="#030100" d="M269.807,300.817
			c0,0-4.579,6.215-10.755,6.941c-6.174,0.728-26.855-1.75-26.855-1.75c-6.21,7.947-12.77,15.282-22.729,16.668
			c-1.015,5.616,1.42,13.388-6.565,14.647c8.031,11.552,19.385,22.888,30.305,6.565c0,0,9.377-0.239,13.132-1.515
			c6.691-2.275,20.203-12.122,20.203-12.122L212.5,369.648c-9.131-15.083-10.527-32.744-29.8-44.446l16.162,5.556
			c-0.842-4.915-1.684-8.039-2.525-10.102l5.051,1.01l-8.839-11.363C214.633,305.645,206.711,284.193,269.807,300.817
			L269.807,300.817z"/>
		<g id="path2620" sodipodi:nodetypes="cc" inkscape:connector-curvature="0" filter="url(#filter3915)">
			<path fill="none" stroke="#000000" d="M158.456,317.223c15.976-2.698,35.462-0.64,43.437,3.662"/>
		</g>
		<g id="g2637" transform="translate(1080.6107,20.834396)">
			
				<path id="path2622" sodipodi:ry="5.5558391" sodipodi:rx="8.4600277" sodipodi:cy="285.15134" sodipodi:cx="-616.57184" sodipodi:type="arc" fill="#3F3F47" d="
				M-862.257,278.864c5.071-0.454,9.443,2.106,9.767,5.718c0.323,3.612-3.525,6.908-8.596,7.361
				c-5.07,0.454-9.443-2.106-9.767-5.718C-871.175,282.613-867.328,279.317-862.257,278.864z"/>
			
				<path id="path2624" sodipodi:ry="5.5558391" sodipodi:rx="8.4600277" sodipodi:cy="285.15134" sodipodi:cx="-616.57184" sodipodi:type="arc" fill="#0C0C13" d="
				M-862.302,279.865c4.374-0.376,8.146,1.743,8.425,4.732c0.279,2.989-3.041,5.717-7.415,6.092
				c-4.375,0.376-8.147-1.743-8.426-4.732C-869.998,282.968-866.677,280.24-862.302,279.865z"/>
			
				<path id="path2626" sodipodi:ry="2.7779195" sodipodi:rx="2.9041886" sodipodi:cy="255.35182" sodipodi:cx="-687.28253" sodipodi:type="arc" d="
				M-861.671,282.121c1.604,0,2.904,1.243,2.904,2.777s-1.301,2.778-2.904,2.778c-1.604,0-2.904-1.244-2.904-2.778
				S-863.276,282.121-861.671,282.121z"/>
			
				<path id="path2628" sodipodi:ry="1.0101526" sodipodi:rx="1.0101526" sodipodi:cy="244.74522" sodipodi:cx="-707.10681" sodipodi:type="arc" fill="#E6E6E6" d="
				M-862.555,282.878c0.558,0,1.01,0.453,1.01,1.011s-0.452,1.01-1.01,1.01s-1.011-0.452-1.011-1.01
				S-863.113,282.878-862.555,282.878z"/>
		</g>
		
			<linearGradient id="path3883_1_" gradientUnits="userSpaceOnUse" x1="-627.7731" y1="157.6577" x2="-653.4875" y2="23.3709" gradientTransform="matrix(-1 0 0 -1 -246.9553 580.6991)">
			<stop  offset="0" style="stop-color:#77563C"/>
			<stop  offset="1" style="stop-color:#B3977F"/>
		</linearGradient>
		<path id="path3883" sodipodi:nodetypes="cccccc" inkscape:connector-curvature="0" fill="url(#path3883_1_)" d="M494.258,486.014
			c1.936,5.677,8.658,12.224-9.285,14.285c-211.09-67.301-189.908-71.057-208.572-85.714l101.429,9.286l65,12.856L494.258,486.014
			L494.258,486.014z"/>
		<path id="path2643" sodipodi:nodetypes="cccccccc" inkscape:connector-curvature="0" fill="#C5B3A5" d="M409.258,411.014
			l40.357,29.285c-8.412,1.812-11.4,6.75-37.143-7.856c-53.293,23.866-85.994,6.981-113.215-3.571
			c-30.265-13.457-28.817-21.84-37.143-31.786c-6.534-4.872-13.238-9.106-16.072-27.857c4.101-31.475,25.949-20.438,35-21.785
			C318.464,356.225,366.519,389.824,409.258,411.014L409.258,411.014z"/>
		<path id="path2645" sodipodi:nodetypes="ccc" inkscape:connector-curvature="0" fill="#4D4D4D" d="M396.043,436.014
			c-23.861-2.87-33.74-11.579-48.214-27.143C360.593,417.257,363.673,423.706,396.043,436.014L396.043,436.014z"/>
		<path id="path2647" sodipodi:nodetypes="ccc" inkscape:connector-curvature="0" fill="#4D4D4D" d="M338.543,412.799
			c9.291,8.048,25.582,17.33,42.857,26.786C366.009,434.634,354.125,429.654,338.543,412.799z"/>
		<path id="path2649" sodipodi:nodetypes="ccc" inkscape:connector-curvature="0" fill="#4D4D4D" d="M326.4,413.872
			c11.533,9.573,24.186,18.4,38.572,26.071C348.762,435.286,336.172,428.121,326.4,413.872z"/>
		<path id="path2651" sodipodi:nodetypes="ccc" inkscape:connector-curvature="0" fill="#4D4D4D" d="M311.043,412.443
			c11.905,10.184,23.811,19.214,35.715,26.071C332.418,432.618,320.088,425.516,311.043,412.443z"/>
		<path id="path2653" sodipodi:nodetypes="ccc" inkscape:connector-curvature="0" fill="#674D36" d="M301.758,413.514l28.929,22.143
			C319.876,429.694,309.678,423.199,301.758,413.514z"/>
		<g id="path2655" inkscape:connector-curvature="0" filter="url(#filter3669)">
			<line fill="#4D4D4D" x1="294.973" y1="414.943" x2="317.115" y2="430.657"/>
			<line fill="none" stroke="#000000" x1="294.973" y1="414.943" x2="317.115" y2="430.657"/>
		</g>
		
			<linearGradient id="path2659_1_" gradientUnits="userSpaceOnUse" x1="-571.3273" y1="180.9721" x2="-553.6491" y2="168.2939" gradientTransform="matrix(-1 0 0 -1 -246.9553 580.6991)">
			<stop  offset="0" style="stop-color:#674D36"/>
			<stop  offset="1" style="stop-color:#333333"/>
		</linearGradient>
		<path id="path2659" sodipodi:nodetypes="ccccc" inkscape:connector-curvature="0" fill="url(#path2659_1_)" d="M323.9,406.728
			c-5.515,3.63-9.998,3.703-11.875,1.875l9.732-13.66l6.429,0.714L323.9,406.728z"/>
		
			<linearGradient id="path2661_1_" gradientUnits="userSpaceOnUse" x1="-560.8292" y1="181.6996" x2="-534.2209" y2="170.0681" gradientTransform="matrix(-1 0 0 -1 -246.9553 580.6991)">
			<stop  offset="0" style="stop-color:#674D36"/>
			<stop  offset="1" style="stop-color:#333333"/>
		</linearGradient>
		<path id="path2661" sodipodi:nodetypes="ccccc" inkscape:connector-curvature="0" fill="url(#path2661_1_)" d="M317.473,394.585
			l-11.697,15.089c-5.998,0.84-7.141-1.119-7.59-2.41l10.894-13.304L317.473,394.585L317.473,394.585z"/>
		
			<linearGradient id="path2663_1_" gradientUnits="userSpaceOnUse" x1="-548.6202" y1="183.6918" x2="-525.8529" y2="172.5169" gradientTransform="matrix(-1 0 0 -1 -246.9553 580.6991)">
			<stop  offset="0" style="stop-color:#674D36"/>
			<stop  offset="1" style="stop-color:#333333"/>
		</linearGradient>
		<path id="path2663" sodipodi:nodetypes="ccccc" inkscape:connector-curvature="0" fill="url(#path2663_1_)" d="M295.24,406.907
			c-3.447,0.642-9.582-0.243-8.125-3.75l9.196-10.268l8.661,0.982L295.24,406.907z"/>
		
			<linearGradient id="path2665_1_" gradientUnits="userSpaceOnUse" x1="-534.962" y1="185.4101" x2="-523.4442" y2="179.0708" gradientTransform="matrix(-1 0 0 -1 -246.9553 580.6991)">
			<stop  offset="0" style="stop-color:#674D36"/>
			<stop  offset="1" style="stop-color:#808080"/>
		</linearGradient>
		<path id="path2665" sodipodi:nodetypes="ccccc" inkscape:connector-curvature="0" fill="url(#path2665_1_)" d="M291.758,392.353
			l-5.268-0.535l-6.786,7.41c0.431,1.688,0.675,3.532,4.106,2.679L291.758,392.353L291.758,392.353z"/>
		
			<linearGradient id="path2667_1_" gradientUnits="userSpaceOnUse" x1="-525.2516" y1="191.5331" x2="-501.6806" y2="193.051" gradientTransform="matrix(-1 0 0 -1 -246.9553 580.6991)">
			<stop  offset="0" style="stop-color:#674D36"/>
			<stop  offset="1" style="stop-color:#666666"/>
		</linearGradient>
		<path id="path2667" sodipodi:nodetypes="cscsc" inkscape:connector-curvature="0" fill="url(#path2667_1_)" d="M281.758,391.014
			c-3.018,1.983-6.896,8.768-14.643,3.929c-5.443-3.4-6.5-10-9.643-15c0,0,7.246,8.484,11.518,10.268
			C272.531,391.689,281.758,391.014,281.758,391.014L281.758,391.014z"/>
		
			<linearGradient id="path2669_1_" gradientUnits="userSpaceOnUse" x1="-584.215" y1="181.4282" x2="-572.6082" y2="170.8035" gradientTransform="matrix(-1 0 0 -1 -246.9553 580.6991)">
			<stop  offset="0" style="stop-color:#674D36"/>
			<stop  offset="1" style="stop-color:#333333"/>
		</linearGradient>
		<path id="path2669" sodipodi:nodetypes="ccccc" inkscape:connector-curvature="0" fill="url(#path2669_1_)" d="M338.766,405.739
			c-5.515,3.629-9.999,3.703-11.875,1.875l5.269-11.518l6.428-0.536L338.766,405.739z"/>
		
			<linearGradient id="path2671_1_" gradientUnits="userSpaceOnUse" x1="-594.0392" y1="182.1967" x2="-585.8696" y2="176.1253" gradientTransform="matrix(-1 0 0 -1 -246.9553 580.6991)">
			<stop  offset="0" style="stop-color:#674D36"/>
			<stop  offset="1" style="stop-color:#333333"/>
		</linearGradient>
		<path id="path2671" sodipodi:nodetypes="ccccc" inkscape:connector-curvature="0" fill="url(#path2671_1_)" d="M347.16,394.4
			l3.214,8.929c-3.551,2.2-6.606,3.702-8.482,1.875l-0.268-9.911L347.16,394.4L347.16,394.4z"/>
		<path id="path2683" sodipodi:nodetypes="ccc" inkscape:connector-curvature="0" fill="#483737" d="M360.15,403.514
			c16.692,3.107,25.844,4.622,44.286,17.857C387.359,420.644,374.267,414.791,360.15,403.514z"/>
		
			<linearGradient id="path2685_1_" gradientUnits="userSpaceOnUse" x1="-517.6837" y1="200.4409" x2="-503.7569" y2="205.8866" gradientTransform="matrix(-1 0 0 -1 -246.9553 580.6991)">
			<stop  offset="0" style="stop-color:#674D36"/>
			<stop  offset="1" style="stop-color:#4D4D4D"/>
		</linearGradient>
		<path id="path2685" sodipodi:nodetypes="ccc" inkscape:connector-curvature="0" fill="url(#path2685_1_)" d="M273.439,378.625
			c-7.256-0.212-7.301,0.339,2.007,4.899C262.173,381.684,251.975,373.771,273.439,378.625z"/>
		
			<linearGradient id="path2687_1_" gradientUnits="userSpaceOnUse" x1="-531.9098" y1="198.4731" x2="-519.8562" y2="202.041" gradientTransform="matrix(-1 0 0 -1 -246.9553 580.6991)">
			<stop  offset="0" style="stop-color:#674D36"/>
			<stop  offset="1" style="stop-color:#4D4D4D"/>
		</linearGradient>
		<path id="path2687" sodipodi:nodetypes="ccc" inkscape:connector-curvature="0" fill="url(#path2687_1_)" d="M287.559,380.447
			c-7.255,0.243-7.265,0.796,2.31,4.766C276.506,384.205,265.834,376.945,287.559,380.447z"/>
		
			<linearGradient id="path2689_1_" gradientUnits="userSpaceOnUse" x1="-542.2643" y1="198.6494" x2="-532.0851" y2="201.5306" gradientTransform="matrix(-1 0 0 -1 -246.9553 580.6991)">
			<stop  offset="0" style="stop-color:#674D36"/>
			<stop  offset="1" style="stop-color:#666666"/>
		</linearGradient>
		<path id="path2689" sodipodi:nodetypes="ccc" inkscape:connector-curvature="0" fill="url(#path2689_1_)" d="M300.726,380.952
			c-7.238,0.545-7.227,1.099,2.506,4.665C289.84,385.167,278.873,378.36,300.726,380.952z"/>
		
			<linearGradient id="path2691_1_" gradientUnits="userSpaceOnUse" x1="-556.4816" y1="196.8774" x2="-547.9102" y2="196.9141" gradientTransform="matrix(-1 0 0 -1 -246.9553 580.6991)">
			<stop  offset="0" style="stop-color:#674D36"/>
			<stop  offset="1" style="stop-color:#4D4D4D"/>
		</linearGradient>
		<path id="path2691" sodipodi:nodetypes="ccc" inkscape:connector-curvature="0" fill="url(#path2691_1_)" d="M314.932,381.742
			c-7.226,0.696-7.201,1.249,2.603,4.611C304.136,386.184,293.029,379.606,314.932,381.742z"/>
		
			<linearGradient id="path2693_1_" gradientUnits="userSpaceOnUse" x1="-571.3917" y1="196.894" x2="-560.856" y2="196.8092" gradientTransform="matrix(-1 0 0 -1 -246.9553 580.6991)">
			<stop  offset="0" style="stop-color:#674D36"/>
			<stop  offset="1" style="stop-color:#4D4D4D"/>
		</linearGradient>
		<path id="path2693" sodipodi:nodetypes="ccc" inkscape:connector-curvature="0" fill="url(#path2693_1_)" d="M329.995,381.64
			c-7.21,0.847-7.173,1.398,2.698,4.556C319.293,386.306,308.053,379.961,329.995,381.64z"/>
		
			<linearGradient id="path2695_1_" gradientUnits="userSpaceOnUse" x1="-516.2667" y1="209.0112" x2="-505.9988" y2="210.3505" gradientTransform="matrix(-1 0 0 -1 -246.9553 580.6991)">
			<stop  offset="0" style="stop-color:#674D36"/>
			<stop  offset="1" style="stop-color:#666666"/>
		</linearGradient>
		<path id="path2695" sodipodi:nodetypes="ccc" inkscape:connector-curvature="0" fill="url(#path2695_1_)" d="M273.639,369.942
			c-7.21,0.841-7.174,1.393,2.695,4.559C262.933,374.599,251.698,368.246,273.639,369.942z"/>
		
			<linearGradient id="path2697_1_" gradientUnits="userSpaceOnUse" x1="-529.5265" y1="208.6547" x2="-518.1872" y2="208.356" gradientTransform="matrix(-1 0 0 -1 -246.9553 580.6991)">
			<stop  offset="0" style="stop-color:#674D36"/>
			<stop  offset="1" style="stop-color:#4D4D4D"/>
		</linearGradient>
		<path id="path2697" sodipodi:nodetypes="ccc" inkscape:connector-curvature="0" fill="url(#path2697_1_)" d="M287.874,369.702
			c-7.144,1.289-7.073,1.838,2.974,4.381C277.48,375.019,265.869,369.38,287.874,369.702z"/>
		
			<linearGradient id="path2699_1_" gradientUnits="userSpaceOnUse" x1="-544.4269" y1="210.142" x2="-530.6769" y2="210.142" gradientTransform="matrix(-1 0 0 -1 -246.9553 580.6991)">
			<stop  offset="0" style="stop-color:#674D36"/>
			<stop  offset="1" style="stop-color:#333333"/>
		</linearGradient>
		<path id="path2699" sodipodi:nodetypes="ccc" inkscape:connector-curvature="0" fill="url(#path2699_1_)" d="M300.974,368.295
			c-7.083,1.587-6.99,2.132,3.154,4.253C290.812,374.042,278.976,368.893,300.974,368.295z"/>
		
			<rect id="rect3673" x="359.614" y="398.514" transform="matrix(0.9329 -0.3601 0.3601 0.9329 -120.0814 156.84)" fill="#FAF1E8" width="2.68" height="4.464"/>
		
			<rect id="rect3675" x="356.418" y="400.441" transform="matrix(0.9258 -0.3781 0.3781 0.9258 -125.6945 165.1643)" fill="#FAF1E8" width="2.678" height="4.465"/>
		
			<rect id="rect3677" x="353.561" y="401.776" transform="matrix(0.933 -0.3599 0.3599 0.933 -121.6099 154.7795)" fill="#FAF1E8" width="2.678" height="4.464"/>
		
			<rect id="rect3679" x="349.913" y="398.964" transform="matrix(0.933 -0.3599 0.3599 0.933 -120.8424 153.2785)" fill="#FAF1E8" width="2.678" height="4.464"/>
		
			<rect id="rect3681" x="350.833" y="402.687" transform="matrix(0.9329 -0.3602 0.3602 0.9329 -122.2057 154.0203)" fill="#FAF1E8" width="2.679" height="4.464"/>
		
			<rect id="rect3683" x="348.069" y="404.096" transform="matrix(0.9331 -0.3597 0.3597 0.9331 -122.7794 152.897)" fill="#FAF1E8" width="2.679" height="4.464"/>
		
			<rect id="rect3685" x="345.097" y="405.567" transform="matrix(0.9582 -0.2862 0.2862 0.9582 -102.224 116.2133)" fill="#FAF1E8" width="2.678" height="4.465"/>
		
			<rect id="rect3687" x="341.988" y="406.074" transform="matrix(0.986 -0.167 0.167 0.986 -63.3658 63.0695)" fill="#FAF1E8" width="2.678" height="4.464"/>
		
			<rect id="rect3689" x="322.167" y="407.51" transform="matrix(0.9329 -0.3602 0.3602 0.9329 -125.8669 144.0192)" fill="#FAF1E8" width="2.679" height="4.464"/>
		
			<rect id="rect3691" x="335.157" y="407.606" transform="matrix(0.9328 -0.3603 0.3603 0.9328 -125.0638 148.7648)" fill="#FAF1E8" width="2.678" height="4.464"/>
		
			<rect id="rect3693" x="319.568" y="408.815" transform="matrix(0.933 -0.3599 0.3599 0.933 -126.4201 143.0186)" fill="#FAF1E8" width="2.678" height="4.464"/>
		
			<rect id="rect3695" x="330.705" y="408.814" transform="matrix(0.9899 -0.1418 0.1418 0.9899 -54.942 51.249)" fill="#FAF1E8" width="2.678" height="4.464"/>
		
			<rect id="rect3697" x="339.007" y="404.895" transform="matrix(0.9994 -0.035 0.035 0.9994 -14.0368 12.1579)" fill="#FAF1E8" width="2.679" height="4.465"/>
		<polygon id="rect3699" fill="#FAF1E8" points="339.751,409.623 337.742,410.015 337.092,406.651 339.101,406.259 		"/>
		
			<rect id="rect3701" x="332.82" y="408.241" transform="matrix(0.9688 -0.2479 0.2479 0.9688 -91.3378 95.6669)" fill="#FAF1E8" width="2.678" height="4.465"/>
		
			<rect id="rect3703" x="327.959" y="408.872" transform="matrix(0.9994 -0.035 0.035 0.9994 -14.1827 11.7737)" fill="#FAF1E8" width="2.679" height="4.465"/>
		
			<rect id="rect3705" x="325.244" y="408.304" transform="matrix(0.9378 0.3471 -0.3471 0.9378 162.8143 -87.8375)" fill="#FAF1E8" width="2.678" height="4.464"/>
		
			<rect id="rect3707" x="323.632" y="405.747" transform="matrix(0.9378 0.3471 -0.3471 0.9378 161.8263 -87.4371)" fill="#FAF1E8" width="2.678" height="4.464"/>
		<polygon id="rect3709" fill="#FAF1E8" points="314.68,413.731 312.562,413.199 313.424,409.615 315.541,410.148 		"/>
		<polygon id="rect3711" fill="#FAF1E8" points="317.16,413.687 314.976,413.661 314.982,409.975 317.166,410.001 		"/>
		<polygon id="rect3713" fill="#FAF1E8" points="319.859,413.135 317.719,413.564 316.955,409.958 319.097,409.53 		"/>
		<polygon id="rect3715" fill="#FAF1E8" points="312.008,413.129 310.168,411.955 312.117,408.827 313.957,410.002 		"/>
		<polygon id="rect3717" inkscape:transform-center-x="1.294258" fill="#FAF1E8" points="310.65,410.952 308.81,409.777 
			310.76,406.649 312.599,407.824 		">
		</polygon>
		<polygon id="rect3719" inkscape:transform-center-x="1.294258" fill="#FAF1E8" points="310.713,408.995 308.873,407.819 
			310.823,404.692 312.664,405.867 		">
		</polygon>
		<polygon id="rect3721" inkscape:transform-center-x="1.294258" fill="#FAF1E8" points="308.819,409.658 306.979,408.482 
			308.93,405.354 310.769,406.53 		">
		</polygon>
		<polygon id="rect3723" inkscape:transform-center-x="1.294258" fill="#FAF1E8" points="306.705,412.688 304.864,411.512 
			306.814,408.385 308.654,409.56 		">
		</polygon>
		
			<polygon id="rect3725" inkscape:transform-center-y="-0.65972107" inkscape:transform-center-x="1.1134978" fill="#FAF1E8" points="
			305.671,413.712 303.488,413.64 303.572,409.955 305.754,410.028 		">
		</polygon>
		<polygon id="rect3727" fill="#FAF1E8" points="298.465,413.067 296.625,411.891 298.575,408.764 300.416,409.939 		"/>
		<polygon id="rect3729" fill="#FAF1E8" points="296.058,410.705 293.917,411.133 293.154,407.528 295.295,407.099 		"/>
		<polygon id="rect3731" fill="#FAF1E8" points="286.881,409.784 285.04,408.609 286.99,405.481 288.83,406.656 		"/>
		
			<polygon id="rect3733" inkscape:transform-center-y="-0.65972107" inkscape:transform-center-x="1.1134978" fill="#FAF1E8" points="
			293.383,411.122 291.2,411.048 291.283,407.363 293.466,407.436 		">
		</polygon>
		<polygon id="rect3735" inkscape:transform-center-y="-0.516961" inkscape:transform-center-x="1.186503" fill="#FAF1E8" points="
			291.037,411.126 288.881,410.785 289.419,407.138 291.575,407.481 		">
		</polygon>
		
			<polygon id="rect3737" inkscape:transform-center-y="-0.18266755" inkscape:transform-center-x="1.2812865" fill="#FAF1E8" points="
			288.637,410.767 286.648,409.864 288.138,406.492 290.125,407.395 		">
		</polygon>
		<polygon id="rect3739" fill="#FAF1E8" points="296.168,411.401 294.604,409.877 297.147,407.209 298.711,408.734 		"/>
		
			<polygon id="rect3741" inkscape:transform-center-y="0.084883638" inkscape:transform-center-x="0.97494612" fill="#FAF1E8" points="
			297.202,408.404 295.471,407.073 297.684,404.126 299.416,405.456 		">
		</polygon>
		<polygon id="rect3743" fill="#FAF1E8" points="301.537,413.903 299.375,413.595 299.855,409.941 302.016,410.248 		"/>
		<polygon id="rect3745" fill="#FAF1E8" points="304.285,413.704 302.106,413.853 301.813,410.178 303.992,410.029 		"/>
		<polygon id="rect3747" fill="#FAF1E8" points="282.855,405.874 281.868,403.927 285.137,402.225 286.124,404.172 		"/>
		<polygon id="rect3749" fill="#FAF1E8" points="284.594,408.011 283.223,406.312 286.064,403.966 287.436,405.665 		"/>
		<polygon id="rect3751" fill="#FAF1E8" points="277.922,404.391 276.34,402.886 278.853,400.189 280.433,401.695 		"/>
		<polygon id="rect3753" fill="#FAF1E8" points="280.275,405.824 278.414,404.681 280.309,401.52 282.17,402.663 		"/>
		<polygon id="rect3755" inkscape:transform-center-x="1.294258" fill="#FAF1E8" points="278.357,400.187 276.517,399.012 
			278.467,395.884 280.307,397.06 		">
		</polygon>
		<polygon id="rect3757" inkscape:transform-center-x="1.294258" fill="#FAF1E8" points="275.326,400.314 273.486,399.138 
			275.436,396.01 277.276,397.186 		">
		</polygon>
		
			<polygon id="rect3759" inkscape:transform-center-y="-0.29822977" inkscape:transform-center-x="1.2594267" fill="#FAF1E8" points="
			272.885,400.601 270.823,399.881 272,396.389 274.061,397.109 		">
		</polygon>
		
			<polygon id="rect3761" inkscape:transform-center-y="1.1319746" inkscape:transform-center-x="0.62748073" fill="#FAF1E8" points="
			308.667,393.091 308.803,390.913 312.483,391.102 312.348,393.281 		">
		</polygon>
		
			<polygon id="rect3763" inkscape:transform-center-y="1.1319746" inkscape:transform-center-x="0.62748073" fill="#FAF1E8" points="
			304.535,392.464 304.672,390.286 308.351,390.475 308.217,392.654 		">
		</polygon>
		
			<polygon id="rect3765" inkscape:transform-center-y="1.1319746" inkscape:transform-center-x="0.62748073" fill="#FAF1E8" points="
			299.863,392.717 299.999,390.539 303.68,390.727 303.545,392.907 		">
		</polygon>
		
			<polygon id="rect3767" inkscape:transform-center-y="1.1319746" inkscape:transform-center-x="0.62748073" fill="#FAF1E8" points="
			295.696,392.338 295.832,390.16 299.514,390.348 299.377,392.528 		">
		</polygon>
		
			<polygon id="rect3769" inkscape:transform-center-y="1.1319746" inkscape:transform-center-x="0.62748073" fill="#FAF1E8" points="
			291.024,392.086 291.16,389.907 294.842,390.096 294.705,392.275 		">
		</polygon>
		
			<polygon id="rect3771" inkscape:transform-center-y="1.1319746" inkscape:transform-center-x="0.62748073" fill="#FAF1E8" points="
			284.838,391.329 284.973,389.149 288.654,389.338 288.517,391.517 		">
		</polygon>
		
			<polygon id="rect3773" inkscape:transform-center-y="1.1319746" inkscape:transform-center-x="0.62748073" fill="#FAF1E8" points="
			280.166,390.824 280.301,388.644 283.982,388.833 283.846,391.012 		">
		</polygon>
		
			<polygon id="rect3775" inkscape:transform-center-y="1.1319746" inkscape:transform-center-x="0.62748073" fill="#FAF1E8" points="
			274.988,390.824 275.124,388.644 278.805,388.833 278.67,391.012 		">
		</polygon>
		
			<polygon id="rect3777" inkscape:transform-center-y="1.1319746" inkscape:transform-center-x="0.62748073" fill="#FAF1E8" points="
			273.599,388.045 273.735,385.867 277.416,386.055 277.28,388.235 		">
		</polygon>
		
			<polygon id="rect3779" inkscape:transform-center-y="1.1319746" inkscape:transform-center-x="0.62748073" fill="#FAF1E8" points="
			268.549,385.899 268.684,383.719 272.365,383.909 272.229,386.088 		">
		</polygon>
		
			<polygon id="rect3781" inkscape:transform-center-y="1.1319746" inkscape:transform-center-x="0.62748073" fill="#FAF1E8" points="
			277.641,386.152 277.775,383.972 281.457,384.162 281.32,386.34 		">
		</polygon>
		
			<polygon id="rect3783" inkscape:transform-center-y="1.1319746" inkscape:transform-center-x="0.62748073" fill="#FAF1E8" points="
			282.564,388.045 282.7,385.866 286.381,386.055 286.246,388.235 		">
		</polygon>
		
			<polygon id="rect3785" inkscape:transform-center-y="1.1319746" inkscape:transform-center-x="0.62748073" fill="#FAF1E8" points="
			288.878,388.424 289.014,386.245 292.695,386.434 292.558,388.614 		">
		</polygon>
		
			<polygon id="rect3787" inkscape:transform-center-y="1.1319746" inkscape:transform-center-x="0.62748073" fill="#FAF1E8" points="
			284.963,383.373 285.099,381.194 288.78,381.383 288.644,383.563 		">
		</polygon>
		
			<polygon id="rect3789" inkscape:transform-center-y="1.1319746" inkscape:transform-center-x="0.62748073" fill="#FAF1E8" points="
			270.189,381.353 270.326,379.174 274.007,379.363 273.871,381.542 		">
		</polygon>
		
			<polygon id="rect3791" inkscape:transform-center-y="1.1319746" inkscape:transform-center-x="0.62748073" fill="#FAF1E8" points="
			297.717,384.131 297.852,381.952 301.533,382.141 301.397,384.32 		">
		</polygon>
		
			<polygon id="rect3793" inkscape:transform-center-y="1.1319746" inkscape:transform-center-x="0.62748073" fill="#FAF1E8" points="
			304.283,387.288 304.418,385.109 308.099,385.297 307.964,387.477 		">
		</polygon>
		
			<polygon id="rect3795" inkscape:transform-center-y="1.1319746" inkscape:transform-center-x="0.62748073" fill="#FAF1E8" points="
			309.713,389.434 309.848,387.255 313.529,387.444 313.392,389.623 		">
		</polygon>
		
			<polygon id="rect3797" inkscape:transform-center-y="1.1319746" inkscape:transform-center-x="0.62748073" fill="#FAF1E8" points="
			314.385,389.434 314.519,387.255 318.201,387.444 318.065,389.623 		">
		</polygon>
		
			<polygon id="rect3799" inkscape:transform-center-y="1.1319746" inkscape:transform-center-x="0.62748073" fill="#FAF1E8" points="
			305.672,390.318 305.807,388.139 309.488,388.329 309.352,390.507 		">
		</polygon>
		
			<polygon id="rect3801" inkscape:transform-center-y="1.1319746" inkscape:transform-center-x="0.62748073" fill="#FAF1E8" points="
			298.474,390.318 298.61,388.139 302.291,388.329 302.155,390.507 		">
		</polygon>
		
			<polygon id="rect3803" inkscape:transform-center-y="1.1319746" inkscape:transform-center-x="0.62748073" fill="#FAF1E8" points="
			293.297,388.171 293.433,385.993 297.114,386.181 296.978,388.361 		">
		</polygon>
		
			<polygon id="rect3805" inkscape:transform-center-y="1.1319746" inkscape:transform-center-x="0.62748073" fill="#FAF1E8" points="
			288.625,385.899 288.762,383.719 292.441,383.909 292.307,386.088 		">
		</polygon>
		
			<polygon id="rect3807" inkscape:transform-center-y="1.1319746" inkscape:transform-center-x="0.62748073" fill="#FAF1E8" points="
			298.222,388.171 298.357,385.993 302.039,386.182 301.902,388.361 		">
		</polygon>
		
			<polygon id="rect3809" inkscape:transform-center-y="1.1319746" inkscape:transform-center-x="0.62748073" fill="#FAF1E8" points="
			310.849,392.591 310.984,390.412 314.666,390.601 314.529,392.78 		">
		</polygon>
		
			<polygon id="rect3811" inkscape:transform-center-y="1.1319746" inkscape:transform-center-x="0.62748073" fill="#FAF1E8" points="
			315.773,393.222 315.909,391.043 319.59,391.232 319.454,393.412 		">
		</polygon>
		
			<polygon id="rect3813" inkscape:transform-center-y="1.1319746" inkscape:transform-center-x="0.62748073" fill="#FAF1E8" points="
			321.203,393.475 321.339,391.295 325.019,391.485 324.884,393.664 		">
		</polygon>
		
			<polygon id="rect3815" inkscape:transform-center-y="1.1319746" inkscape:transform-center-x="0.62748073" fill="#FAF1E8" points="
			331.178,395.369 331.314,393.19 334.995,393.379 334.859,395.558 		">
		</polygon>
		
			<polygon id="rect3817" inkscape:transform-center-y="1.1319746" inkscape:transform-center-x="0.62748073" fill="#FAF1E8" points="
			326.633,394.99 326.767,392.811 330.449,393 330.313,395.179 		">
		</polygon>
		
			<polygon id="rect3819" inkscape:transform-center-y="1.1319746" inkscape:transform-center-x="0.62748073" fill="#FAF1E8" points="
			324.612,392.591 324.748,390.412 328.429,390.601 328.293,392.781 		">
		</polygon>
		
			<polygon id="rect3821" inkscape:transform-center-y="1.1319746" inkscape:transform-center-x="0.62748073" fill="#FAF1E8" points="
			319.182,390.066 319.318,387.886 322.999,388.076 322.863,390.254 		">
		</polygon>
		
			<polygon id="rect3823" inkscape:transform-center-y="1.1319746" inkscape:transform-center-x="0.62748073" fill="#FAF1E8" points="
			325.622,390.95 325.758,388.77 329.439,388.959 329.303,391.139 		">
		</polygon>
		
			<polygon id="rect3825" inkscape:transform-center-y="1.1319746" inkscape:transform-center-x="0.62748073" fill="#FAF1E8" points="
			331.305,393.222 331.44,391.043 335.121,391.232 334.985,393.412 		">
		</polygon>
		
			<polygon id="rect3827" inkscape:transform-center-y="1.1319746" inkscape:transform-center-x="0.62748073" fill="#FAF1E8" points="
			322.465,388.929 322.601,386.75 326.282,386.939 326.146,389.119 		">
		</polygon>
		
			<polygon id="rect3829" inkscape:transform-center-y="1.1319746" inkscape:transform-center-x="0.62748073" fill="#FAF1E8" points="
			318.172,386.909 318.308,384.73 321.989,384.918 321.853,387.098 		">
		</polygon>
		
			<polygon id="rect3831" inkscape:transform-center-y="1.1319746" inkscape:transform-center-x="0.62748073" fill="#FAF1E8" points="
			335.219,394.359 335.354,392.179 339.035,392.369 338.899,394.548 		">
		</polygon>
		
			<linearGradient id="path3885_1_" gradientUnits="userSpaceOnUse" x1="-603.2047" y1="161.1865" x2="-730.4839" y2="99.0621" gradientTransform="matrix(-1 0 0 -1 -246.9553 580.6991)">
			<stop  offset="0" style="stop-color:#7B5A40"/>
			<stop  offset="1" style="stop-color:#B3977F"/>
		</linearGradient>
		<path id="path3885" sodipodi:nodetypes="ccccc" inkscape:connector-curvature="0" fill="url(#path3885_1_)" d="M494.207,486.851
			c-60.772-18.119-77.226-31.938-95.036-48.189l4.878-2.352c23.912,18.229,43.551,32.147,78.729,39.112L494.207,486.851z"/>
		<path id="path3887" sodipodi:nodetypes="ccc" inkscape:connector-curvature="0" fill="#AF937A" d="M384.079,442.085l33.929,20
			C407.197,456.122,391.998,451.77,384.079,442.085z"/>
		<path id="path3889" sodipodi:nodetypes="ccc" inkscape:connector-curvature="0" fill="#AF937A" d="M364.793,446.372l37.5,19.285
			C391.482,459.694,372.713,456.056,364.793,446.372z"/>
		
			<linearGradient id="path3931_1_" gradientUnits="userSpaceOnUse" x1="-815.8448" y1="-266.6002" x2="-807.6756" y2="-272.6713" gradientTransform="matrix(-0.6467 -0.3018 0.2551 -0.3126 -116.9988 48.7559)">
			<stop  offset="0" style="stop-color:#674D36"/>
			<stop  offset="1" style="stop-color:#333333"/>
		</linearGradient>
		<path id="path3931" sodipodi:nodetypes="ccccc" inkscape:connector-curvature="0" fill="url(#path3931_1_)" d="M343.523,380.865
			c-2.857-0.384-5.217-0.837-5.965-1.975l2.355-3.18l3.809,1.393L343.523,380.865z"/>
		
			<linearGradient id="path3935_1_" gradientUnits="userSpaceOnUse" x1="-815.8439" y1="-266.6026" x2="-807.6746" y2="-272.6737" gradientTransform="matrix(-0.6467 -0.3018 0.2551 -0.3126 -124.6794 46.0273)">
			<stop  offset="0" style="stop-color:#674D36"/>
			<stop  offset="1" style="stop-color:#333333"/>
		</linearGradient>
		<path id="path3935" sodipodi:nodetypes="ccccc" inkscape:connector-curvature="0" fill="url(#path3935_1_)" d="M335.843,378.136
			c-2.857-0.384-5.217-0.836-5.964-1.974l2.355-3.18l3.808,1.393L335.843,378.136z"/>
		
			<linearGradient id="path3939_1_" gradientUnits="userSpaceOnUse" x1="-815.8448" y1="-266.6002" x2="-807.6752" y2="-272.6716" gradientTransform="matrix(-0.6467 -0.3018 0.2551 -0.3126 -132.2556 42.4922)">
			<stop  offset="0" style="stop-color:#674D36"/>
			<stop  offset="1" style="stop-color:#333333"/>
		</linearGradient>
		<path id="path3939" sodipodi:nodetypes="ccccc" inkscape:connector-curvature="0" fill="url(#path3939_1_)" d="M328.266,374.601
			c-2.857-0.384-5.217-0.836-5.964-1.974l2.355-3.18l3.808,1.392L328.266,374.601z"/>
		
			<linearGradient id="path3943_1_" gradientUnits="userSpaceOnUse" x1="-815.8468" y1="-266.6006" x2="-807.6776" y2="-272.6718" gradientTransform="matrix(-0.6467 -0.3018 0.2551 -0.3126 -140.0837 38.1992)">
			<stop  offset="0" style="stop-color:#674D36"/>
			<stop  offset="1" style="stop-color:#333333"/>
		</linearGradient>
		<path id="path3943" sodipodi:nodetypes="ccccc" inkscape:connector-curvature="0" fill="url(#path3943_1_)" d="M320.437,370.308
			c-2.857-0.384-5.217-0.836-5.964-1.975l2.355-3.179l3.808,1.392L320.437,370.308z"/>
		
			<linearGradient id="path3947_1_" gradientUnits="userSpaceOnUse" x1="-815.8429" y1="-266.6006" x2="-807.6755" y2="-272.6704" gradientTransform="matrix(-0.6467 -0.3018 0.2551 -0.3126 -148.4177 34.1582)">
			<stop  offset="0" style="stop-color:#674D36"/>
			<stop  offset="1" style="stop-color:#333333"/>
		</linearGradient>
		<path id="path3947" sodipodi:nodetypes="ccccc" inkscape:connector-curvature="0" fill="url(#path3947_1_)" d="M312.103,366.267
			c-2.857-0.384-5.217-0.836-5.963-1.974l2.354-3.18l3.808,1.392L312.103,366.267z"/>
		
			<linearGradient id="path3951_1_" gradientUnits="userSpaceOnUse" x1="-815.8448" y1="-266.6002" x2="-807.6752" y2="-272.6716" gradientTransform="matrix(-0.6467 -0.3018 0.2551 -0.3126 -155.741 30.3701)">
			<stop  offset="0" style="stop-color:#674D36"/>
			<stop  offset="1" style="stop-color:#333333"/>
		</linearGradient>
		<path id="path3951" sodipodi:nodetypes="ccccc" inkscape:connector-curvature="0" fill="url(#path3951_1_)" d="M304.78,362.479
			c-2.857-0.384-5.217-0.836-5.964-1.974l2.355-3.18l3.808,1.392L304.78,362.479z"/>
		
			<linearGradient id="path3955_1_" gradientUnits="userSpaceOnUse" x1="-815.8458" y1="-266.6016" x2="-807.6773" y2="-272.6722" gradientTransform="matrix(-0.6467 -0.3018 0.2551 -0.3126 -163.823 28.3496)">
			<stop  offset="0" style="stop-color:#674D36"/>
			<stop  offset="1" style="stop-color:#333333"/>
		</linearGradient>
		<path id="path3955" sodipodi:nodetypes="ccccc" inkscape:connector-curvature="0" fill="url(#path3955_1_)" d="M296.699,360.458
			c-2.857-0.383-5.217-0.836-5.964-1.974l2.354-3.18l3.809,1.393L296.699,360.458z"/>
		
			<linearGradient id="path3959_1_" gradientUnits="userSpaceOnUse" x1="-815.8458" y1="-266.6011" x2="-807.6762" y2="-272.6725" gradientTransform="matrix(-0.6467 -0.3018 0.2551 -0.3126 -109.0222 52.5938)">
			<stop  offset="0" style="stop-color:#674D36"/>
			<stop  offset="1" style="stop-color:#333333"/>
		</linearGradient>
		<path id="path3959" sodipodi:nodetypes="ccccc" inkscape:connector-curvature="0" fill="url(#path3959_1_)" d="M351.5,384.703
			c-2.857-0.384-5.217-0.836-5.964-1.975l2.354-3.179l3.809,1.392L351.5,384.703z"/>
		<path id="path3973" sodipodi:nodetypes="ccc" inkscape:connector-curvature="0" fill="#584535" d="M394.383,408.303
			c8.744,3.026,10.051,1.203,0.242-8.66C410.142,407.206,418.863,423.151,394.383,408.303z"/>
		<path id="path3977" sodipodi:nodetypes="ccc" inkscape:connector-curvature="0" fill="#584535" d="M378.044,397.29
			c8.743,3.026,10.05,1.203,0.241-8.66C393.803,396.194,402.523,412.138,378.044,397.29z"/>
		<path id="path3979" sodipodi:nodetypes="ccc" inkscape:connector-curvature="0" fill="#584535" d="M361.973,388.004
			c8.744,3.026,10.051,1.203,0.241-8.659C377.732,386.908,386.452,402.852,361.973,388.004z"/>
		<path id="path3981" sodipodi:nodetypes="ccc" inkscape:connector-curvature="0" fill="#584535" d="M351.258,379.581
			c7.109,2.954,8.172,1.174,0.197-8.45C364.072,378.511,371.162,394.07,351.258,379.581z"/>
		<path id="path3983" sodipodi:nodetypes="ccc" inkscape:connector-curvature="0" fill="#584535" d="M335.187,371.218
			c8.743,3.027,10.05,1.204,0.24-8.659C350.946,370.122,359.666,386.067,335.187,371.218z"/>
		<path id="path3985" sodipodi:nodetypes="ccc" inkscape:connector-curvature="0" fill="#584535" d="M321.973,364.433
			c8.744,3.026,10.051,1.203,0.241-8.659C337.732,363.336,346.452,379.281,321.973,364.433z"/>
		<path id="path3995" inkscape:connector-curvature="0" fill="none" d="M478.928,494.758l69.7,54.548"/>
		<g id="path3997" sodipodi:nodetypes="cc" inkscape:connector-curvature="0" filter="url(#filter4043)">
			<line fill="none" stroke="#D1BA9F" stroke-width="2" x1="481.969" y1="499.192" x2="554.183" y2="553.347"/>
		</g>
		<g id="path4001" sodipodi:nodetypes="cc" inkscape:connector-curvature="0" filter="url(#filter4031)">
			<line fill="none" stroke="#855D5D" x1="495.595" y1="487.687" x2="512.828" y2="497.936"/>
		</g>
	</g>
</g>
</svg>
