<?xml version="1.0" encoding="UTF-8" standalone="no"?>
<!-- Created with Inkscape (http://www.inkscape.org/) -->
<svg
   xmlns:dc="http://purl.org/dc/elements/1.1/"
   xmlns:cc="http://creativecommons.org/ns#"
   xmlns:rdf="http://www.w3.org/1999/02/22-rdf-syntax-ns#"
   xmlns:svg="http://www.w3.org/2000/svg"
   xmlns="http://www.w3.org/2000/svg"
   xmlns:xlink="http://www.w3.org/1999/xlink"
   xmlns:sodipodi="http://sodipodi.sourceforge.net/DTD/sodipodi-0.dtd"
   xmlns:inkscape="http://www.inkscape.org/namespaces/inkscape"
   width="500"
   height="500"
   id="svg2"
   sodipodi:version="0.32"
   inkscape:version="0.46"
   version="1.0"
   sodipodi:docname="AmandavaFormosa.svg"
   inkscape:output_extension="org.inkscape.output.svg.inkscape">
  <defs
     id="defs4">
    <linearGradient
       inkscape:collect="always"
       id="linearGradient2534">
      <stop
         style="stop-color:#e6e6e6;stop-opacity:1;"
         offset="0"
         id="stop2536" />
      <stop
         style="stop-color:#e6e6e6;stop-opacity:0;"
         offset="1"
         id="stop2538" />
    </linearGradient>
    <linearGradient
       id="linearGradient2438"
       inkscape:collect="always">
      <stop
         id="stop2440"
         offset="0"
         style="stop-color:#dddfae;stop-opacity:1" />
      <stop
         id="stop2442"
         offset="1"
         style="stop-color:#d8cf44;stop-opacity:0.83253725" />
    </linearGradient>
    <linearGradient
       inkscape:collect="always"
       id="linearGradient2423">
      <stop
         style="stop-color:#d8cf44;stop-opacity:1;"
         offset="0"
         id="stop2425" />
      <stop
         style="stop-color:#74763e;stop-opacity:1"
         offset="1"
         id="stop2427" />
    </linearGradient>
    <linearGradient
       inkscape:collect="always"
       id="linearGradient2411">
      <stop
         style="stop-color:#bd3e37;stop-opacity:1;"
         offset="0"
         id="stop2413" />
      <stop
         style="stop-color:#d40000;stop-opacity:1"
         offset="1"
         id="stop2415" />
    </linearGradient>
    <inkscape:perspective
       sodipodi:type="inkscape:persp3d"
       inkscape:vp_x="0 : 526.18109 : 1"
       inkscape:vp_y="0 : 1000 : 0"
       inkscape:vp_z="744.09448 : 526.18109 : 1"
       inkscape:persp3d-origin="372.04724 : 350.78739 : 1"
       id="perspective10" />
    <inkscape:perspective
       id="perspective2390"
       inkscape:persp3d-origin="372.04724 : 350.78739 : 1"
       inkscape:vp_z="744.09448 : 526.18109 : 1"
       inkscape:vp_y="0 : 1000 : 0"
       inkscape:vp_x="0 : 526.18109 : 1"
       sodipodi:type="inkscape:persp3d" />
    <inkscape:perspective
       id="perspective2403"
       inkscape:persp3d-origin="372.04724 : 350.78739 : 1"
       inkscape:vp_z="744.09448 : 526.18109 : 1"
       inkscape:vp_y="0 : 1000 : 0"
       inkscape:vp_x="0 : 526.18109 : 1"
       sodipodi:type="inkscape:persp3d" />
    <linearGradient
       inkscape:collect="always"
       xlink:href="#linearGradient2423"
       id="linearGradient2583"
       gradientUnits="userSpaceOnUse"
       x1="440.71429"
       y1="401.29074"
       x2="469.77679"
       y2="355.21933" />
    <linearGradient
       inkscape:collect="always"
       xlink:href="#linearGradient2534"
       id="linearGradient2585"
       gradientUnits="userSpaceOnUse"
       x1="447.67856"
       y1="387.54074"
       x2="440.89285"
       y2="401.82648" />
    <linearGradient
       inkscape:collect="always"
       xlink:href="#linearGradient2411"
       id="linearGradient2587"
       gradientUnits="userSpaceOnUse"
       x1="375.89288"
       y1="312.54074"
       x2="375"
       y2="320.04074" />
    <linearGradient
       inkscape:collect="always"
       xlink:href="#linearGradient2438"
       id="linearGradient2589"
       gradientUnits="userSpaceOnUse"
       x1="393.9595"
       y1="345.2554"
       x2="396.84375"
       y2="409.90515" />
  </defs>
  <sodipodi:namedview
     id="base"
     pagecolor="#ffffff"
     bordercolor="#666666"
     borderopacity="1.0"
     gridtolerance="10000"
     guidetolerance="10"
     objecttolerance="10"
     inkscape:pageopacity="0.0"
     inkscape:pageshadow="2"
     inkscape:zoom="1.4"
     inkscape:cx="299.62298"
     inkscape:cy="226.143"
     inkscape:document-units="px"
     inkscape:current-layer="layer1"
     showgrid="false"
     inkscape:window-width="640"
     inkscape:window-height="669"
     inkscape:window-x="69"
     inkscape:window-y="69" />
  <metadata
     id="metadata7">
    <rdf:RDF>
      <cc:Work
         rdf:about="">
        <dc:format>image/svg+xml</dc:format>
        <dc:type
           rdf:resource="http://purl.org/dc/dcmitype/StillImage" />
      </cc:Work>
    </rdf:RDF>
  </metadata>
  <g
     inkscape:label="Layer 1"
     inkscape:groupmode="layer"
     id="layer1">
    <g
       id="g2554"
       transform="matrix(1.8880946,0,0,1.8880946,-607.07316,-459.27709)">
      <path
         sodipodi:nodetypes="cszzccscsscssssscc"
         id="path2421"
         d="M 374.28571,316.6479 C 374.28571,316.6479 376.81257,322.22833 378.92857,325.93361 C 380.47766,328.64618 385.71429,332.71932 386.42857,338.07647 C 387.14285,343.43362 383.92857,357.00504 384.64286,363.79075 C 385.35715,370.57646 391.42857,384.50504 395,388.43361 C 412.5512,409.20492 436.80199,414.62115 462.62256,416.47458 C 469.71591,416.97652 481.68926,407.16934 491.24475,406.90352 C 507.71499,406.44533 520.49021,405.29111 520.49021,405.29111 C 520.49021,405.29111 555.71428,430.21932 561.42857,430.57647 C 567.14286,430.93361 565.35715,427.36218 563.21428,424.50504 C 561.44723,422.14898 517.55076,395.69901 517.55076,395.69901 C 517.55076,395.69901 494.01403,378.9425 485.71429,371.29075 C 474.48712,360.94012 458.08173,348.93252 447.14285,338.07647 C 441.78641,332.76058 435.09701,325.07778 429.64286,319.86218 C 425.04275,315.46326 418.46251,309.58927 412.5,307.36218 C 407.76556,305.5938 401.46279,305.20382 395.71429,305.93361 C 393.2604,306.24513 385.35714,308.79075 385.35714,308.79075 L 374.28571,316.6479 z"
         style="fill:url(#linearGradient2583);fill-opacity:1;fill-rule:evenodd;stroke:none;stroke-width:1px;stroke-linecap:butt;stroke-linejoin:miter;stroke-opacity:1" />
      <path
         id="path2532"
         d="M 431.42857,373.96932 L 422.14286,385.57647 L 426.25,386.46932 L 429.46429,388.25504 L 436.07143,391.46932 L 443.39286,392.71932 L 445.17857,395.04075 L 452.5,396.6479 L 459.82143,400.3979 L 467.14286,402.71932 L 473.39286,403.61218 L 480,403.43361 L 487.14286,401.6479 L 488.39286,397.00504 C 488.39286,397.00504 469.46429,394.68361 461.60714,391.6479 C 453.75,388.61218 442.14286,382.8979 440.89286,382.00504 C 439.64286,381.11218 431.60714,374.50504 431.42857,373.96932 z"
         style="opacity:0.77520004;fill:url(#linearGradient2585);fill-opacity:1;fill-rule:evenodd;stroke:none;stroke-width:1px;stroke-linecap:butt;stroke-linejoin:miter;stroke-opacity:1" />
      <path
         id="path2518"
         d="M 435.18975,377.2122 C 435.18975,377.2122 432.36053,381.35416 430.93543,382.94509 C 430.03954,383.94524 428.87529,385.44015 427.66287,385.98017 C 426.5777,386.46351 423.73581,386.3174 423.73581,386.3174 L 423.73581,385.64293 C 423.73581,385.64293 427.59287,382.78556 428.9719,381.25895 C 429.78841,380.35504 431.26268,377.88666 431.26268,377.88666 L 433.55347,375.86328 L 435.18975,377.2122 z"
         style="opacity:0.77519998;fill:#4d4d4d;fill-rule:evenodd;stroke:none;stroke-width:0.65773267px;stroke-linecap:butt;stroke-linejoin:miter;stroke-opacity:1" />
      <path
         sodipodi:nodetypes="cssccscc"
         id="path2508"
         d="M 466.755,393.01742 C 466.755,393.01742 466.97953,392.39135 466.30266,394.82366 C 465.87714,396.35274 465.42241,398.54782 464.43713,399.75034 C 463.55526,400.82666 460.53515,402.1409 460.53515,402.1409 L 460.19569,401.42223 C 460.19569,401.42223 462.75669,396.38258 463.41816,394.04263 C 463.80981,392.65715 463.59096,392.16863 463.59096,392.16863 L 466.755,393.01742 z"
         style="opacity:1;fill:#4d4d4d;fill-rule:evenodd;stroke:none;stroke-width:0.65773267px;stroke-linecap:butt;stroke-linejoin:miter;stroke-opacity:1" />
      <path
         sodipodi:nodetypes="cssccscc"
         id="path2506"
         d="M 472.6067,394.35408 C 472.6067,394.35408 472.83123,393.72801 472.15436,396.16032 C 471.72884,397.6894 471.27411,399.88448 470.28883,401.087 C 469.40696,402.16332 466.38685,403.47756 466.38685,403.47756 L 466.04739,402.75889 C 466.04739,402.75889 468.60839,397.71924 469.26986,395.37929 C 469.66151,393.99381 469.63207,393.82096 469.63207,393.82096 L 472.6067,394.35408 z"
         style="opacity:0.97320012;fill:#4d4d4d;fill-rule:evenodd;stroke:none;stroke-width:0.65773267px;stroke-linecap:butt;stroke-linejoin:miter;stroke-opacity:1" />
      <path
         sodipodi:nodetypes="cccccc"
         id="path2504"
         d="M 478.87869,395.50133 C 478.64267,395.54858 477.2464,399.99891 476.49768,401.4135 C 475.61581,402.48982 472.5957,403.80406 472.5957,403.80406 L 472.25624,403.08539 C 473.6075,400.9119 475.08661,396.64634 475.52524,395.03134 L 478.87869,395.50133 z"
         style="opacity:1;fill:#4d4d4d;fill-rule:evenodd;stroke:none;stroke-width:0.65773267px;stroke-linecap:butt;stroke-linejoin:miter;stroke-opacity:1" />
      <path
         style="opacity:0.98360015;fill:#4d4d4d;fill-rule:evenodd;stroke:none;stroke-width:0.65773267px;stroke-linecap:butt;stroke-linejoin:miter;stroke-opacity:1"
         d="M 484.51975,396.73936 C 484.09423,398.26844 483.51323,400.71606 482.52795,401.91858 C 481.64608,402.9949 478.62597,404.30914 478.62597,404.30914 L 478.28651,403.59047 C 478.28651,403.59047 480.84751,398.55082 481.50898,396.21087 C 482.92224,396.3433 483.76268,396.37589 484.51975,396.73936 z"
         id="path2546"
         sodipodi:nodetypes="cscccc" />
      <path
         sodipodi:nodetypes="cscccc"
         id="path2475"
         d="M 489.87689,397.02658 C 489.47575,398.35336 488.92804,400.47715 487.99921,401.52057 C 487.16787,402.45449 484.3208,403.59485 484.3208,403.59485 L 484.00079,402.97126 C 484.00079,402.97126 486.41506,398.59838 487.03863,396.56801 C 488.37091,396.68292 489.1632,396.7112 489.87689,397.02658 z"
         style="opacity:0.98360015;fill:#4d4d4d;fill-rule:evenodd;stroke:none;stroke-width:0.65773267px;stroke-linecap:butt;stroke-linejoin:miter;stroke-opacity:1" />
      <path
         sodipodi:nodetypes="cssccsscssc"
         id="path2419"
         d="M 360.71429,315.57647 C 360.71429,315.57647 366.23349,318.53669 368.75001,319.68361 C 370.2326,320.35931 372.52886,320.85375 374.10714,321.46932 C 376.7879,322.51488 382.85714,325.3979 382.85714,325.3979 L 385.17857,328.07647 C 385.17857,328.07647 385.13913,325.53388 384.82143,324.50504 C 384.42533,323.22231 382.13093,321.80219 382.67857,320.57647 C 383.06022,319.72226 385.71429,319.86218 385.71429,319.86218 C 385.71429,319.86218 380.53464,317.92174 378.03572,317.36218 C 375.17383,316.72135 370.65182,316.16446 367.85714,315.93361 C 365.71889,315.75698 360.71429,315.57647 360.71429,315.57647 z"
         style="fill:#a23e24;fill-opacity:1;fill-rule:evenodd;stroke:none;stroke-width:1px;stroke-linecap:butt;stroke-linejoin:miter;stroke-opacity:1" />
      <path
         sodipodi:nodetypes="czczscssc"
         id="path2409"
         d="M 385.17857,308.96933 C 385.17857,308.96933 376.42857,310.39789 372.67857,311.29075 C 368.92857,312.18361 360.53572,315.39789 360.53572,315.39789 C 360.53572,315.39789 368.03572,316.11218 370.53572,316.6479 C 373.07804,317.19268 375.41436,316.66773 377.32143,317.18361 C 380.03623,317.91799 386.25,320.04075 386.25,320.04075 C 386.25,320.04075 384.98832,316.77249 384.10715,315.57646 C 383.50006,314.75247 380.89286,314.86218 381.60714,313.25504 C 382.32143,311.6479 385.17857,309.1479 385.17857,308.96933 z"
         style="fill:url(#linearGradient2587);fill-opacity:1;fill-rule:evenodd;stroke:none;stroke-width:1px;stroke-linecap:butt;stroke-linejoin:miter;stroke-opacity:1" />
      <path
         sodipodi:nodetypes="ccsscssscc"
         id="path2434"
         d="M 381.84375,321 L 380.53125,328.0625 C 382.69543,330.62469 384.88031,333.95965 385.42735,338.0625 C 386.14164,343.41964 383.94196,356.99554 384.65625,363.78125 C 385.05333,367.55344 387.11045,373.50809 389.46875,378.75 C 389.46875,378.75 407.88975,375.4852 412.15625,369.5 C 415.32817,365.05032 414.43528,356.6252 413.15625,351.3125 C 412.17095,347.21986 409.07037,342.16412 406.09375,339.1875 C 403.11713,336.21088 393.96875,332.125 393.96875,332.125 L 381.84375,321 z"
         style="opacity:0.59120011;fill:url(#linearGradient2589);fill-opacity:1;fill-rule:evenodd;stroke:none;stroke-width:1px;stroke-linecap:butt;stroke-linejoin:miter;stroke-opacity:1" />
      <path
         id="path2447"
         d="M 518.625,396.34375 L 521.09375,405.6875 C 522.85803,406.93361 555.87384,430.21476 561.4375,430.5625 C 567.15177,430.91963 565.36162,427.35714 563.21875,424.5 C 561.52022,422.23532 521.77346,398.24274 518.625,396.34375 z"
         style="fill:#000000;fill-opacity:1;fill-rule:evenodd;stroke:none;stroke-width:1px;stroke-linecap:butt;stroke-linejoin:miter;stroke-opacity:1" />
      <path
         sodipodi:nodetypes="cssccscs"
         id="path2455"
         d="M 431.34375,341.21875 C 429.97752,341.21875 423.4784,367.2408 430.3125,373.53125 C 436.43507,379.16677 445.96576,385.29126 453.5625,388.6875 C 476.79318,399.07311 520.72224,399.8125 520.72224,399.8125 L 516.16181,394.72908 C 509.22527,389.57355 489.88143,375.11894 485.71875,371.28125 C 476.3758,362.66775 463.4742,352.91493 453.09375,343.625 C 449.93992,350.19601 442.54889,341.21879 431.34375,341.21875 z"
         style="opacity:0.50680003;fill:#5f5924;fill-opacity:1;fill-rule:evenodd;stroke:none;stroke-width:1px;stroke-linecap:butt;stroke-linejoin:miter;stroke-opacity:1" />
      <g
         transform="matrix(0.3633183,0.2039875,-0.1809281,0.3222475,244.77449,98.003047)"
         id="g2467">
        <path
           sodipodi:type="arc"
           style="opacity:0.50680003;fill:#5f5924;fill-opacity:1;stroke:none"
           id="path2457"
           sodipodi:cx="542.4519"
           sodipodi:cy="302.82898"
           sodipodi:rx="14.142136"
           sodipodi:ry="13.131983"
           d="M 556.59404,302.82898 A 14.142136,13.131983 0 1 1 528.30977,302.82898 A 14.142136,13.131983 0 1 1 556.59404,302.82898 z"
           transform="matrix(0.8571429,0,0,0.8846154,110.82816,52.619475)" />
        <g
           id="g2463"
           transform="translate(-10.101525,7.0710674)">
          <path
             d="M 594.97987,313.94067 A 9.5964489,10.101525 0 1 1 575.78697,313.94067 A 9.5964489,10.101525 0 1 1 594.97987,313.94067 z"
             sodipodi:ry="10.101525"
             sodipodi:rx="9.5964489"
             sodipodi:cy="313.94067"
             sodipodi:cx="585.38342"
             id="path2459"
             style="opacity:1;fill:#000000;fill-opacity:1;stroke:none"
             sodipodi:type="arc" />
          <path
             transform="translate(12.121831,-55.55839)"
             d="M 578.81742,366.4686 A 2.0203052,3.0304577 0 1 1 574.77681,366.4686 A 2.0203052,3.0304577 0 1 1 578.81742,366.4686 z"
             sodipodi:ry="3.0304577"
             sodipodi:rx="2.0203052"
             sodipodi:cy="366.4686"
             sodipodi:cx="576.79712"
             id="path2461"
             style="opacity:1;fill:#ffffff;fill-opacity:1;stroke:none"
             sodipodi:type="arc" />
        </g>
      </g>
      <path
         id="path2521"
         d="M 437.45089,379.19196 L 436.29464,380.22321 C 436.29464,380.22321 434.79864,382.6943 433.98214,383.59821 C 432.60311,385.12482 428.76338,388.00447 428.76339,388.00446 L 428.76339,388.66071 C 428.76339,388.66071 431.58448,388.8003 432.66964,388.31696 C 433.88206,387.77694 435.05499,386.28584 435.95089,385.28571 C 437.05775,384.05006 438.66468,381.74453 439.48214,380.56696 C 438.79935,380.11266 438.11701,379.6583 437.45089,379.19196 z"
         style="opacity:0.77519998;fill:#4d4d4d;fill-rule:evenodd;stroke:none;stroke-width:0.65773267px;stroke-linecap:butt;stroke-linejoin:miter;stroke-opacity:1" />
      <path
         style="opacity:0.77519998;fill:#4d4d4d;fill-rule:evenodd;stroke:none;stroke-width:0.65773267px;stroke-linecap:butt;stroke-linejoin:miter;stroke-opacity:1"
         d="M 441.19196,382.23661 L 441.03571,382.36161 C 441.03571,382.36161 439.57096,384.83271 438.75446,385.73661 C 437.37543,387.26322 433.50447,390.14287 433.50446,390.14286 L 433.50446,390.79911 C 433.50446,390.79911 436.3568,390.9387 437.44196,390.45536 C 438.65438,389.91534 439.79606,388.42425 440.69196,387.42411 C 441.50309,386.5186 442.65791,384.96712 443.59821,383.64286 C 442.80175,383.19214 441.99168,382.71836 441.19196,382.23661 z"
         id="path2542" />
      <path
         id="path2514"
         d="M 445.83482,384.73661 L 445.67857,384.86161 C 445.67857,384.86161 444.21382,387.33271 443.39732,388.23661 C 442.01829,389.76322 438.14733,392.64287 438.14732,392.64286 L 438.14732,393.29911 C 438.14732,393.29911 440.99966,393.4387 442.08482,392.95536 C 443.29724,392.41534 444.43892,390.92425 445.33482,389.92411 C 446.14595,389.0186 447.30077,387.46712 448.24107,386.14286 C 447.44461,385.69214 446.63454,385.21836 445.83482,384.73661 z"
         style="opacity:0.77519998;fill:#4d4d4d;fill-rule:evenodd;stroke:none;stroke-width:0.65773267px;stroke-linecap:butt;stroke-linejoin:miter;stroke-opacity:1" />
      <path
         id="path2512"
         d="M 450.4375,387.1875 C 450.06287,388.04126 449.52709,389.24701 449.0625,389.9375 C 447.91403,391.64433 444.49999,395.03126 444.5,395.03125 L 444.59375,395.6875 C 444.59375,395.6875 447.43188,395.44492 448.4375,394.8125 C 449.56103,394.10591 450.50509,392.46089 451.25,391.34375 C 451.72187,390.63608 452.34426,389.49044 452.9375,388.375 C 452.12294,388.00032 451.28584,387.61755 450.4375,387.1875 z"
         style="opacity:0.77519998;fill:#4d4d4d;fill-rule:evenodd;stroke:none;stroke-width:0.65773267px;stroke-linecap:butt;stroke-linejoin:miter;stroke-opacity:1" />
      <path
         style="opacity:0.96280015;fill:#4d4d4d;fill-rule:evenodd;stroke:none;stroke-width:0.65773267px;stroke-linecap:butt;stroke-linejoin:miter;stroke-opacity:1"
         d="M 455.24554,389.37946 C 454.94814,390.08556 454.6106,390.81324 454.33929,391.25446 C 453.26169,393.0069 449.99555,396.5357 449.99554,396.53571 L 450.12054,397.19196 C 450.12054,397.19196 452.95419,396.83379 453.93304,396.16071 C 455.02669,395.4087 455.89076,393.71369 456.58929,392.56696 C 456.92901,392.00928 457.35,391.18128 457.77679,390.31696 C 456.91153,390.02281 456.07453,389.69349 455.24554,389.37946 z"
         id="path2544" />
      <path
         id="path2510"
         d="M 459.22247,390.84981 C 459.01355,391.58695 458.76743,392.35041 458.55205,392.82147 C 457.6966,394.69242 454.88599,398.59378 454.88598,398.59379 L 455.09021,399.22986 C 455.09021,399.22986 457.85889,398.52822 458.74818,397.7406 C 459.74178,396.86063 460.39232,395.07276 460.94553,393.84928 C 461.21458,393.25428 461.53127,392.38105 461.84928,391.47107 C 460.95457,391.28482 460.08361,391.06022 459.22247,390.84981 z"
         style="opacity:0.96280015;fill:#4d4d4d;fill-rule:evenodd;stroke:none;stroke-width:0.65773267px;stroke-linecap:butt;stroke-linejoin:miter;stroke-opacity:1" />
      <path
         sodipodi:nodetypes="ccssscccccscccc"
         id="path2548"
         d="M 464.28571,413.07647 L 449.28571,433.07647 C 449.28571,433.07647 441.13102,434.42798 438.57143,436.6479 C 437.12351,437.90368 436.03788,440.47307 435.71429,442.36218 C 435.42261,444.06501 435.53175,446.06369 437.18618,446.56124 C 439.0781,447.13022 440.71429,443.07647 440.71429,443.07647 L 442.14286,438.79075 L 451.72444,436.90044 L 455.67839,440.55852 L 455.67839,445.55852 C 455.67839,445.55852 459.90065,444.85037 460.67839,443.41567 C 461.52024,441.8627 459.66824,437.61472 459.66824,437.61472 L 453.57143,433.07647 L 470,412.36218 L 464.28571,413.07647 z"
         style="fill:#ce9b75;fill-opacity:1;fill-rule:evenodd;stroke:none;stroke-width:1px;stroke-linecap:butt;stroke-linejoin:miter;stroke-opacity:1" />
      <path
         sodipodi:nodetypes="ccscsc"
         id="path2550"
         d="M 435.83816,444.09609 L 437.62867,445.37526 C 437.62867,445.37526 434.53144,445.90996 433.98225,446.97018 C 433.46516,447.96842 434.56507,450.97126 434.56507,450.97126 C 434.56507,450.97126 432.42099,447.64202 432.75884,446.29679 C 433.04526,445.1563 435.83816,444.09609 435.83816,444.09609 z"
         style="fill:#666666;fill-rule:evenodd;stroke:none;stroke-width:1px;stroke-linecap:butt;stroke-linejoin:miter;stroke-opacity:1" />
      <path
         sodipodi:nodetypes="ccscsc"
         id="path2552"
         d="M 460.13635,442.85543 L 457.98344,443.3106 C 457.98344,443.3106 460.60741,445.04078 460.6861,446.2322 C 460.7602,447.35397 458.5499,449.66512 458.5499,449.66512 C 458.5499,449.66512 461.8477,447.473 462.07679,446.10505 C 462.27102,444.94529 460.13635,442.85543 460.13635,442.85543 z"
         style="fill:#666666;fill-rule:evenodd;stroke:none;stroke-width:1px;stroke-linecap:butt;stroke-linejoin:miter;stroke-opacity:1" />
    </g>
    <path
       style="fill:#333333;fill-rule:evenodd;stroke:none;stroke-width:1px;stroke-linecap:butt;stroke-linejoin:miter;stroke-opacity:1"
       d="M 289.28571,285 C 289.28571,285 327.1585,291.67552 343.57143,292.85714 C 356.18165,293.76499 407.62352,297.25924 393.57143,290 C 390.76047,288.54787 376.52183,284.71395 373.57143,283.57143 C 370.27581,282.29523 362.07904,280.43181 358.57143,280 C 336.02733,277.2247 289.28571,285 289.28571,285 z"
       id="path2611"
       sodipodi:nodetypes="cssssc" />
  </g>
</svg>
