<?xml version="1.0" encoding="UTF-8" standalone="no"?>
<!-- Created with Inkscape (http://www.inkscape.org/) -->
<svg
   xmlns:dc="http://purl.org/dc/elements/1.1/"
   xmlns:cc="http://creativecommons.org/ns#"
   xmlns:rdf="http://www.w3.org/1999/02/22-rdf-syntax-ns#"
   xmlns:svg="http://www.w3.org/2000/svg"
   xmlns="http://www.w3.org/2000/svg"
   xmlns:xlink="http://www.w3.org/1999/xlink"
   xmlns:sodipodi="http://sodipodi.sourceforge.net/DTD/sodipodi-0.dtd"
   xmlns:inkscape="http://www.inkscape.org/namespaces/inkscape"
   version="1.0"
   width="800"
   height="800"
   id="svg2"
   sodipodi:version="0.32"
   inkscape:version="0.45.1+0.46pre1+devel"
   sodipodi:docname="BlueThroatedBarbet.svg"
   inkscape:output_extension="org.inkscape.output.svg.inkscape">
  <metadata
     id="metadata55">
    <rdf:RDF>
      <cc:Work
         rdf:about="">
        <dc:format>image/svg+xml</dc:format>
        <dc:type
           rdf:resource="http://purl.org/dc/dcmitype/StillImage" />
      </cc:Work>
    </rdf:RDF>
  </metadata>
  <sodipodi:namedview
     inkscape:window-height="664"
     inkscape:window-width="640"
     inkscape:pageshadow="2"
     inkscape:pageopacity="0.0"
     guidetolerance="10.0"
     gridtolerance="10.0"
     objecttolerance="10.0"
     borderopacity="1.0"
     bordercolor="#666666"
     pagecolor="#ffffff"
     id="base"
     showgrid="false"
     inkscape:zoom="0.5775"
     inkscape:cx="251.56216"
     inkscape:cy="539.66256"
     inkscape:window-x="92"
     inkscape:window-y="12"
     inkscape:current-layer="svg2" />
  <defs
     id="defs4">
    <inkscape:perspective
       sodipodi:type="inkscape:persp3d"
       inkscape:vp_x="-50 : 600 : 1"
       inkscape:vp_y="0 : 1000 : 0"
       inkscape:vp_z="700 : 600 : 1"
       inkscape:persp3d-origin="300 : 400 : 1"
       id="perspective57" />
    <linearGradient
       id="linearGradient3371">
      <stop
         id="stop3373"
         style="stop-color:#497308;stop-opacity:1"
         offset="0" />
      <stop
         id="stop3375"
         style="stop-color:#497308;stop-opacity:0"
         offset="1" />
    </linearGradient>
    <linearGradient
       id="linearGradient3363">
      <stop
         id="stop3365"
         style="stop-color:#599715;stop-opacity:1"
         offset="0" />
      <stop
         id="stop3367"
         style="stop-color:#599715;stop-opacity:0"
         offset="1" />
    </linearGradient>
    <linearGradient
       id="linearGradient3219">
      <stop
         id="stop3221"
         style="stop-color:#dee1cf;stop-opacity:1"
         offset="0" />
      <stop
         id="stop3227"
         style="stop-color:#4f5436;stop-opacity:0.875"
         offset="0.47309941" />
      <stop
         id="stop3223"
         style="stop-color:#dee1cf;stop-opacity:0"
         offset="1" />
    </linearGradient>
    <linearGradient
       id="linearGradient3209">
      <stop
         id="stop3211"
         style="stop-color:#999999;stop-opacity:1"
         offset="0" />
      <stop
         id="stop3217"
         style="stop-color:#999999;stop-opacity:0.49803922"
         offset="0.5" />
      <stop
         id="stop3213"
         style="stop-color:#999999;stop-opacity:0"
         offset="1" />
    </linearGradient>
    <inkscape:perspective
       id="perspective10" />
    <inkscape:perspective
       id="perspective2395" />
    <inkscape:perspective
       id="perspective2408" />
    <linearGradient
       x1="177.4101"
       y1="-69.662064"
       x2="413.94028"
       y2="-430.61871"
       id="linearGradient3369"
       xlink:href="#linearGradient3363"
       gradientUnits="userSpaceOnUse" />
    <linearGradient
       x1="124.23615"
       y1="-15.593059"
       x2="216.50941"
       y2="-210.73969"
       id="linearGradient3377"
       xlink:href="#linearGradient3371"
       gradientUnits="userSpaceOnUse" />
  </defs>
  <g
     id="layer1">
    <g
       id="g3413">
      <path
         d="M 515.22144,411.9992 L 498.52136,423.63028 L 507.62841,429.4432 L 473.98039,495.82715 L 458.97991,501.44816 L 445.57759,520.46973 L 446.87817,535.60609 L 451.68454,541.0895 C 451.60658,541.08222 451.44762,541.06689 451.44762,541.06689 C 451.44763,541.06686 447.33245,548.60424 449.54079,552.53772 C 452.46806,557.75177 466.43831,561.76373 466.43831,561.76373 C 466.43828,561.76375 455.94507,555.36179 453.32424,551.03156 C 452.6526,549.92186 454.38191,547.00151 454.90148,544.7848 L 455.26222,545.19433 C 455.26222,545.19433 462.97612,540.0443 464.05161,536.6722 C 465.73329,531.39944 460.19131,519.07392 460.1913,519.07392 L 469.30802,508.80647 L 482.13584,504.70107 L 499.5976,512.20438 C 499.5976,512.20438 495.77766,528.92447 501.27573,531.28852 C 504.37072,532.61929 508.2203,528.20255 510.78545,524.50454 C 510.82368,524.73199 510.90242,524.95576 511.03429,525.17956 C 512.13511,527.04784 516.87679,528.66253 517.05141,530.24268 C 517.60685,535.26822 513.18752,546.67094 513.18752,546.67094 C 513.18752,546.67094 521.83884,535.02713 520.98845,529.11392 C 520.39021,524.95412 513.74689,521.75415 512.81995,521.32695 C 513.27217,520.55866 513.60685,519.99233 513.60685,519.99233 L 504.68681,503.19307 L 487.7905,494.68852 L 525.48599,418.80638 L 515.22144,411.9992 z"
         id="path3406"
         style="fill:#808080;fill-opacity:1;fill-rule:nonzero;stroke:none;stroke-width:0.1;stroke-miterlimit:4;stroke-dasharray:none;stroke-opacity:1" />
      <path
         d="M 452.94714,457.47872 L 473.18132,472.28479 L 414.16496,533.0676 L 427.65442,546.31514 L 431.02678,565.01754 C 431.02678,565.01754 420.05166,575.6841 415.85115,572.03094 C 411.33531,568.10355 420.0666,553.32854 420.0666,553.32854 L 405.73406,540.86027 L 392.2446,540.86027 L 380.44133,547.87367 C 380.44133,547.87367 381.96399,561.28755 378.75515,565.79681 C 376.70299,568.68064 367.79497,571.25168 367.79497,571.25168 L 362.73642,559.56268 L 366.10879,544.75661 L 384.65679,530.7298 L 400.67551,529.95054 L 452.94714,476.96039 L 442.83005,467.60919 L 452.94714,457.47872 z"
         id="path3306"
         style="fill:#4d4d4d;fill-opacity:1;fill-rule:nonzero;stroke:none;stroke-width:0.1;stroke-miterlimit:4;stroke-dasharray:none;stroke-opacity:1" />
      <g
         transform="matrix(-1.0422724,0.1622414,0.1755294,0.9633699,460.90115,420.37342)"
         id="g3281">
        <path
           d="M 250.431,-247.73571 C 250.431,-247.73571 226.74159,-260.70849 204.74427,-254.50412 C 182.74695,-248.29975 169.77417,-245.47957 151.16106,-233.07083 C 132.54794,-220.66209 116.12827,-208.43718 100.96205,-198.10074 C 92.895772,-192.60322 73.888427,-180.05165 73.888427,-180.05165 C 73.888427,-180.05165 23.451686,-159.7776 2.820169,-149.0298 C -15.298978,-139.59079 -41.406274,-123.73253 -55.275312,-113.49567 C -82.183437,-93.634535 -115.74545,-67.257046 -138.75231,-39.60724 C -143.23698,-34.217531 -116.755,-47.503713 -116.755,-47.503713 C -116.755,-47.503713 -131.45513,-31.695844 -138.75231,-26.070429 C -173.61724,0.80704743 -264.53185,49.510099 -264.53185,49.510099 C -264.53185,49.510099 -268.25431,62.259057 -264.53185,68.123215 C -261.24589,73.299736 -245.3547,82.224059 -245.3547,82.224059 C -245.3547,82.224059 -234.40939,92.311348 -228.43369,92.940701 C -223.58853,93.450988 -213.20477,87.300363 -213.20477,87.300363 L -110.55062,8.8996663 C -110.55062,8.8996663 -76.194586,2.2400244 -61.479683,3.8233621 C -49.083539,5.1571991 -21.997318,16.796139 -21.997318,16.796139 L -21.433284,22.436477 L -6.605827e-15,20.180342 L -9.0245406,26.384714 L 13.876487,24.360521 L 6.7684055,34.845221 L 17.485048,32.025052 L 5.6403379,38.793457 L 12.972777,37.101356 L 5.6403379,43.869761 L 15.228912,41.613626 L 6.2043717,47.253964 L 23.125385,44.997829 L 9.0245407,54.586403 L 25.381521,50.074133 L 19.741183,56.842539 L 14.004287,63.202908 L 62.607751,31.461018 L 80.092799,17.924207 C 80.092799,17.924207 114.31217,9.2987478 128.5997,4.3873959 C 144.17103,-0.96526295 165.26033,-7.9825052 179.36275,-16.481854 C 191.8136,-23.985826 209.9704,-37.82162 216.58898,-47.503713 C 222.06871,-55.519822 226.45649,-68.025869 228.99772,-77.397504 C 232.26066,-89.430656 234.07275,-106.11709 234.63806,-118.57197 C 234.97599,-126.01724 233.50999,-143.38946 233.50999,-143.38946 L 241.40646,-167.64291 L 249.86697,-190.20426 L 260.58361,-207.12528 L 250.431,-247.73571 z"
           id="path2432"
           style="opacity:1;fill:url(#linearGradient3369);fill-opacity:1;fill-rule:nonzero;stroke:none;stroke-width:0.1;stroke-miterlimit:4;stroke-dasharray:none;stroke-opacity:1" />
        <path
           d="M 217.125,-256.1875 C 213.04884,-256.16065 208.8745,-255.66332 204.75,-254.5 C 198.45242,-252.72376 192.94361,-251.21339 187.78125,-249.6875 L 131.625,-195.96875 L 156.34375,-190.40625 L 149.15625,-188 L 165.90625,-185.625 L 163.53125,-179.21875 L 179.46875,-174.4375 L 177.875,-168.875 L 191.4375,-168.875 L 188.25,-158.5 L 196.21875,-158.5 L 197.03125,-148.90625 L 202.59375,-153.71875 L 209,-131.375 L 212.1875,-128.96875 L 216.96875,-119.40625 L 222.5625,-114.625 L 233.96875,-108.4375 C 234.27453,-111.98514 234.48202,-115.41247 234.625,-118.5625 C 234.96293,-126.00777 232.48499,-135.88738 233.5,-143.375 C 234.51502,-150.86262 238.87773,-160.43703 241.40625,-167.65625 C 243.79986,-174.49031 246.68145,-183.79326 249.875,-190.21875 C 252.56953,-195.6402 260.59375,-207.125 260.59375,-207.125 L 250.4375,-247.75 C 250.4375,-247.75001 234.78837,-256.30386 217.125,-256.1875 z"
           id="path3243"
           style="opacity:1;fill:#4da1cb;fill-opacity:1;fill-rule:nonzero;stroke:none;stroke-width:0.1;stroke-miterlimit:4;stroke-dasharray:none;stroke-opacity:1"
           sodipodi:nodetypes="csccccccccccccccccccszssccc" />
        <path
           d="M 235.31095,-229.25062 C 234.4211,-232.59495 230.80326,-236.43004 227.66471,-237.88807 C 224.96977,-239.14001 219.23766,-240.38095 215.5062,-239.8138 C 211.77474,-239.24665 206.28942,-233.37333 203.87164,-230.94272 C 201.45386,-228.51211 199.88028,-223.07744 197.06315,-222.07165 C 189.8943,-219.51217 186.59674,-216.39122 186.59674,-216.39122 L 202.60672,-217.51929 C 202.60672,-217.51929 207.37181,-212.81515 210.25295,-211.83886 C 213.13409,-210.86257 218.80792,-210.38681 221.75066,-211.13797 C 224.6934,-211.88913 232.87788,-217.51929 232.87788,-217.51929 C 235.00127,-220.13626 236.23515,-225.77718 235.31095,-229.25062 z"
           id="path3268"
           style="opacity:0.72419996;fill:#1a1a1a;fill-opacity:1;fill-rule:nonzero;stroke:none;stroke-width:0.1;stroke-miterlimit:4;stroke-dasharray:none;stroke-opacity:1" />
        <path
           d="M 261.15746,-208.74711 C 253.021,-206.47392 240.84539,-200.35703 236.09375,-195.96875 C 228.30884,-188.77916 222.11989,-172.99514 219.22395,-163.77392 C 216.328,-154.5527 214.07101,-143.92407 216.15625,-135.375 C 218.31883,-126.50883 234.1875,-111.53125 234.1875,-111.53125 C 234.36375,-113.96755 234.5244,-116.34608 234.625,-118.5625 C 234.96293,-126.00777 233.13362,-137.2676 234.14863,-144.75522 C 235.16365,-152.24283 238.87773,-160.43703 241.40625,-167.65625 C 243.79986,-174.49031 246.68208,-183.79288 249.875,-190.21875 C 252.44412,-195.38921 261.15746,-208.74711 261.15746,-208.74711 z"
           id="path3248"
           style="opacity:0.51199993;fill:#17353e;fill-opacity:1;fill-rule:nonzero;stroke:none;stroke-width:0.1;stroke-miterlimit:4;stroke-dasharray:none;stroke-opacity:1"
           sodipodi:nodetypes="cszscszssc" />
        <g
           transform="translate(2.3929927,-0.7976642)"
           id="g3261">
          <g
             transform="translate(45.686737,-24.253453)"
             id="g2426">
            <path
               d="M 227.30562,-221.79016 A 11.844709,10.716642 0 1 1 203.6162,-221.79016 A 11.844709,10.716642 0 1 1 227.30562,-221.79016 z"
               transform="matrix(1.0113249,-0.4204384,0.4040827,0.9719827,41.494763,106.37141)"
               id="path2418"
               style="opacity:1;fill:#b17c2e;fill-opacity:1;fill-rule:nonzero;stroke:none;stroke-width:0.1;stroke-miterlimit:4;stroke-dasharray:none;stroke-opacity:1" />
            <path
               d="M 179.36275,-199.79283 A 10.152608,10.152608 0 1 1 159.05754,-199.79283 A 10.152608,10.152608 0 1 1 179.36275,-199.79283 z"
               id="path2420"
               style="opacity:1;fill:#4f2717;fill-opacity:1;fill-rule:nonzero;stroke:none;stroke-width:0.1;stroke-miterlimit:4;stroke-dasharray:none;stroke-opacity:1" />
            <path
               d="M 141.00844,-168.48897 A 4.7942872,4.7942872 0 1 1 131.41987,-168.48897 A 4.7942872,4.7942872 0 1 1 141.00844,-168.48897 z"
               transform="translate(33.277994,-31.585892)"
               id="path2422"
               style="opacity:1;fill:#000000;fill-opacity:1;fill-rule:nonzero;stroke:none;stroke-width:0.1;stroke-miterlimit:4;stroke-dasharray:none;stroke-opacity:1" />
            <path
               d="M 111.11466,-164.25871 A 2.538152,2.820169 0 1 1 106.03836,-164.25871 A 2.538152,2.820169 0 1 1 111.11466,-164.25871 z"
               transform="matrix(0.7777778,0,0,0.7,81.095527,-90.170063)"
               id="path2424"
               style="opacity:1;fill:#f2f2f2;fill-opacity:1;fill-rule:nonzero;stroke:none;stroke-width:0.1;stroke-miterlimit:4;stroke-dasharray:none;stroke-opacity:1" />
          </g>
        </g>
        <path
           d="M 217.125,-256.1875 C 213.04884,-256.16065 208.8745,-255.66332 204.75,-254.5 C 202.09995,-253.75255 198.19407,-252.52868 195.78033,-251.85678 C 200.77383,-250.93728 201.52719,-249.11357 205.45574,-247.88537 C 208.78518,-246.84447 221.0432,-246.33662 223.90625,-244.34375 C 226.95209,-242.22363 230.25391,-238.35767 232.375,-235.3125 C 234.53757,-232.20777 236.51886,-227.49948 238.03125,-224.03125 C 238.60913,-222.70604 239.71875,-219.53124 239.71875,-219.53125 C 239.71875,-219.53125 245.86413,-221.02203 247.625,-222.90625 C 250.07253,-225.52521 250.72132,-232.10892 251.5625,-234.1875 C 252.40368,-236.26608 252.43777,-236.2579 253,-237.46875 L 251.625,-242.9375 L 249.44547,-246.26607 L 248.78125,-248.5625 C 244.45363,-250.66072 231.52998,-256.28239 217.125,-256.1875 z"
           id="path2437"
           style="opacity:1;fill:#800000;fill-opacity:1;fill-rule:nonzero;stroke:none;stroke-width:0.1;stroke-miterlimit:4;stroke-dasharray:none;stroke-opacity:1"
           sodipodi:nodetypes="cscsssscssccccc" />
        <g
           id="g3255">
          <path
             d="M 322.62733,-257.88832 C 322.62733,-257.88832 290.95733,-256.32094 277.50463,-254.50411 C 268.7897,-253.32713 248.7389,-248.86378 248.7389,-248.86378 C 248.7389,-248.86378 251.9238,-238.66411 251.55907,-234.1989 C 251.28014,-230.78403 249.76131,-226.14958 247.61083,-223.48226 C 246.22609,-221.76472 241.40646,-219.53402 241.40646,-219.53402 L 236.89419,-205.43317 L 250.99504,-210.50948 C 250.99504,-210.50948 256.86785,-216.09122 259.45554,-218.40595 C 265.26921,-223.60638 272.7206,-230.97921 279.19673,-235.32697 C 285.35416,-239.46077 294.61293,-243.18842 301.19405,-246.60764 C 307.64193,-249.95763 322.62733,-257.88832 322.62733,-257.88832 z"
             id="path2414"
             style="opacity:1;fill:#dcdfce;fill-opacity:1;fill-rule:nonzero;stroke:none;stroke-width:0.1;stroke-miterlimit:4;stroke-dasharray:none;stroke-opacity:1" />
          <path
             d="M 237.65177,-194.1525 L 247.24034,-208.81738 C 247.24034,-208.81738 256.26488,-222.35418 281.6464,-237.5831 C 307.02792,-252.81201 319.11638,-256.89629 319.11638,-256.89629 C 319.11638,-256.89629 311.86449,-247.36818 307.31761,-242.86916 C 299.49935,-235.13319 285.09359,-224.03768 276.00607,-217.84192 C 264.83192,-210.22352 237.65177,-194.1525 237.65177,-194.1525 z"
             id="path2416"
             style="opacity:1;fill:#c4cd96;fill-opacity:1;fill-rule:nonzero;stroke:none;stroke-width:0.1;stroke-miterlimit:4;stroke-dasharray:none;stroke-opacity:1"
             sodipodi:nodetypes="ccscssc" />
          <path
             d="M 322.625,-257.875 C 322.62501,-257.87501 290.9527,-256.31683 277.5,-254.5 C 268.78506,-253.32303 248.75,-248.875 248.75,-248.875 C 248.75,-248.875 248.88314,-248.31628 248.96875,-248.03125 C 253.04758,-248.35961 276.38431,-250.21875 280.78125,-250.21875 C 285.56725,-250.21874 294.35322,-253.40247 284.78125,-241.4375 C 283.70627,-240.09378 283.18619,-238.85352 283.125,-237.6875 C 288.87891,-240.89117 295.88902,-243.84093 301.1875,-246.59375 C 307.63537,-249.94374 322.625,-257.875 322.625,-257.875 z"
             id="path3232"
             style="opacity:0.61300007;fill:#808080;fill-opacity:1;fill-rule:nonzero;stroke:none;stroke-width:0.1;stroke-miterlimit:4;stroke-dasharray:none;stroke-opacity:1" />
          <path
             d="M 248.87124,-246.2352 L 259.24088,-246.2352 L 252.85956,-242.24688 L 248.87124,-246.2352 z"
             id="path3234"
             style="opacity:1;fill:#1a1a1a;fill-opacity:1;fill-rule:nonzero;stroke:none;stroke-width:0.1;stroke-miterlimit:4;stroke-dasharray:none;stroke-opacity:1" />
        </g>
        <path
           d="M 196.22541,-252.61652 C 196.22541,-252.61652 201.63522,-249.22265 204.17374,-248.41043 C 208.88489,-246.90307 220.37329,-246.31353 220.37329,-246.31353 C 220.37329,-246.31353 205.56155,-241.9138 201.80905,-239.85388 C 196.91639,-237.16807 190.48746,-233.39625 185.85577,-230.28191 C 181.88413,-227.61138 173.09314,-220.70994 173.09314,-220.70994 L 179.87328,-217.51929 C 179.87328,-217.51929 167.87883,-211.91316 162.7235,-209.54264 C 157.46941,-207.1267 139.96861,-197.19897 129.22161,-196.78001 C 124.98443,-196.61484 109.28001,-200.76834 109.28001,-200.76834 C 109.28001,-200.76834 151.09955,-212.46309 154.74686,-216.72162 C 156.56219,-218.84117 157.64863,-222.63971 159.53285,-224.69826 C 163.92804,-229.50011 169.63624,-229.84281 173.77848,-232.41103 C 176.57026,-234.14195 181.02379,-235.81466 182.76063,-238.73464 C 184.26697,-241.2671 184.17392,-248.72302 184.17392,-248.72302 L 196.22541,-252.61652 z"
           id="path3236"
           style="opacity:1;fill:#000000;fill-opacity:1;fill-rule:nonzero;stroke:none;stroke-width:0.1;stroke-miterlimit:4;stroke-dasharray:none;stroke-opacity:1"
           sodipodi:nodetypes="cscssccsscsssscc" />
        <path
           d="M 103.69635,-199.97067 C 103.69635,-199.97067 131.16608,-201.34598 141.98423,-205.55432 C 145.35544,-206.86575 149.33867,-209.83657 151.95504,-212.33447 C 155.41672,-215.63938 161.52701,-225.0971 161.52701,-225.0971 C 168.29591,-229.12368 176.64033,-232.49057 182.25293,-238.25316 C 183.9282,-239.9732 185.5381,-248.42973 183.82164,-248.1318 C 175.91037,-246.75861 161.12817,-239.85388 146.77022,-230.28191 C 137.74297,-224.26374 105.29168,-200.76834 103.69635,-199.97067 z"
           id="path3238"
           style="opacity:1;fill:#9a151a;fill-opacity:1;fill-rule:nonzero;stroke:none;stroke-width:0.1;stroke-miterlimit:4;stroke-dasharray:none;stroke-opacity:1"
           sodipodi:nodetypes="cssssssc" />
        <path
           d="M -143.8125,-22.3125 C -181.63647,5.0943342 -264.53125,49.5 -264.53125,49.5 C -264.53124,49.500001 -268.25371,62.260842 -264.53125,68.125 C -261.24528,73.301521 -245.34375,82.21875 -245.34375,82.21875 C -245.34374,82.218749 -234.4132,92.308147 -228.4375,92.9375 C -223.59234,93.447784 -213.21875,87.3125 -213.21875,87.3125 L -110.5625,8.90625 C -110.5625,8.9062501 -108.31125,8.4559605 -104.78125,7.84375 C -117.4148,6.4030421 -134.1404,3.2281168 -140.375,-3.75 C -143.54023,-7.2927009 -143.92183,-16.407269 -143.8125,-22.3125 z"
           id="path3253"
           style="opacity:1;fill:#4b8129;fill-opacity:1;fill-rule:nonzero;stroke:none;stroke-width:0.1;stroke-miterlimit:4;stroke-dasharray:none;stroke-opacity:1" />
        <path
           d="M 1.5953287,-99.464972 C -9.5178113,-91.961132 -51.696683,-70.628561 -52.645845,-56.391109 C -54.241169,-32.461179 -97.1611,-19.126647 -84.55241,-16.507897 C -65.19065,-12.486567 -18.654315,-12.137377 3.1906463,-14.912567 C 51.683971,-21.073173 80.518259,-26.147399 134.00759,-35.651837 C 147.69625,-38.084154 186.65343,-50.009796 186.65343,-50.009796 L 170.70014,-46.819137 L 188.24876,-56.391107 L 188.24876,-64.367747 C 188.24876,-64.367747 208.22675,-75.432561 213.77402,-83.511687 C 219.30112,-91.561427 223.34599,-115.41826 223.34599,-115.41826 C 223.34599,-115.41826 208.67668,-116.77315 202.60672,-118.60892 C 196.10723,-120.57459 187.45717,-124.03308 181.86744,-128.18089 C 176.77574,-131.95914 171.3602,-138.9189 167.50949,-144.13418 C 164.21375,-148.59782 157.93752,-160.08746 157.93752,-160.08746 L 116.45898,-152.11082 C 116.45898,-152.11082 84.439742,-149.16263 71.789782,-144.13418 C 40.951012,-131.87554 29.098588,-118.03578 1.5953287,-99.464972 z"
           id="path3270"
           style="opacity:1;fill:url(#linearGradient3377);fill-opacity:1;fill-rule:nonzero;stroke:none;stroke-width:0.1;stroke-miterlimit:4;stroke-dasharray:none;stroke-opacity:1"
           sodipodi:nodetypes="cssssccccscsssccsc" />
        <path
           d="M 57.431825,-83.511693 C 57.431825,-83.511693 16.802122,-69.16562 0,-73.939722 C -4.8938567,-75.330247 -12.762628,-85.107022 -12.762628,-85.107022 C -12.762628,-85.107022 3.9893871,-85.230742 11.167299,-85.107022 C 25.052844,-84.867687 57.431825,-83.511693 57.431825,-83.511693 z"
           id="path3272"
           style="opacity:1;fill:#333333;fill-opacity:1;fill-rule:nonzero;stroke:none;stroke-width:0.1;stroke-miterlimit:4;stroke-dasharray:none;stroke-opacity:1" />
        <path
           d="M -60.622482,-35.651839 C -60.622482,-35.651839 -94.86299,-18.871902 -86.147738,-16.507897 C -55.536423,-8.204603 -17.548614,-14.912569 -17.548614,-14.912569 C -34.996007,-20.56964 -62.774447,-26.074896 -60.622482,-35.651839 z"
           id="path3274"
           style="opacity:1;fill:#333333;fill-opacity:1;fill-rule:nonzero;stroke:none;stroke-width:0.1;stroke-miterlimit:4;stroke-dasharray:none;stroke-opacity:1" />
        <path
           d="M -58.3125,-111.21875 C -84.682519,-91.631918 -116.58563,-66.231049 -138.75,-39.59375 C -141.99023,-35.69962 -129.14136,-41.54445 -121.71875,-45.09375 L -58.3125,-111.21875 z"
           id="path3279"
           style="opacity:1;fill:#1a1a1a;fill-opacity:1;fill-rule:nonzero;stroke:none;stroke-width:0.1;stroke-miterlimit:4;stroke-dasharray:none;stroke-opacity:1" />
      </g>
      <path
         d="M 429.59595,565.81883 C 429.59595,565.81883 436.03383,571.53009 435.28512,575.9743 C 434.29264,581.86535 422.50039,590.30281 422.50039,590.30281 C 422.50039,590.30281 430.19369,580.79241 431.19651,575.83671 C 431.51183,574.2785 427.49154,571.31506 427.01257,569.20015 C 426.5336,567.08524 429.59595,565.81883 429.59595,565.81883 z"
         id="path3308"
         style="fill:#000000;fill-opacity:1;fill-rule:nonzero;stroke:none;stroke-width:0.1;stroke-miterlimit:4;stroke-dasharray:none;stroke-opacity:1" />
      <path
         d="M 365.41703,566.16545 C 365.41703,566.16545 359.18298,572.06674 360.08728,576.48616 C 361.28598,582.34435 373.36816,590.42379 373.36816,590.42379 C 373.36816,590.42379 365.34512,581.14907 364.1689,576.22605 C 363.79907,574.67811 367.71323,571.59568 368.11772,569.46753 C 368.52221,567.33936 365.41703,566.16545 365.41703,566.16545 z"
         id="path3310"
         style="fill:#000000;fill-opacity:1;fill-rule:nonzero;stroke:none;stroke-width:0.1;stroke-miterlimit:4;stroke-dasharray:none;stroke-opacity:1" />
      <path
         d="M 206.43636,345.38876 C 206.43636,345.38876 213.18037,331.87993 212.0767,311.54673 C 211.76327,305.7723 219.89601,328.06909 219.97318,331.85196 C 220.12455,339.27255 206.43636,345.38876 206.43636,345.38876 z"
         id="path3361"
         style="opacity:1;fill:#aa0000;fill-opacity:1;fill-rule:nonzero;stroke:none;stroke-width:0.1;stroke-miterlimit:4;stroke-dasharray:none;stroke-opacity:1" />
    </g>
  </g>
  <path
     style="opacity:0.70040001;fill:#f2f2f2;fill-opacity:1;fill-rule:nonzero;stroke:none;stroke-width:0.10000000000000001;stroke-miterlimit:4;stroke-dasharray:none;stroke-opacity:1"
     d="M 207.79221,208.22511 L 197.8355,216.45022 C 197.8355,216.45022 203.8487,215.19571 206.06061,213.85281 C 207.94455,212.70903 211.25541,208.65801 211.25541,208.65801 L 207.79221,208.22511 z"
     id="path2435"
     sodipodi:nodetypes="ccscc" />
  <path
     id="path2444"
     d="M 147.54349,213.49931 L 159.78776,235.53901"
     style="opacity:1;fill:none;fill-opacity:1;fill-rule:nonzero;stroke:#000000;stroke-width:0.1;stroke-miterlimit:4;stroke-dasharray:none;stroke-opacity:1" />
  <path
     id="path2446"
     d="M 155.16672,209.31804 L 161.95995,233.59812"
     style="opacity:1;fill:none;fill-opacity:1;fill-rule:nonzero;stroke:#000000;stroke-width:0.1;stroke-miterlimit:4;stroke-dasharray:none;stroke-opacity:1" />
  <path
     id="path2448"
     d="M 155.29726,270.91401 L 172.84925,252.81435"
     style="opacity:1;fill:none;fill-opacity:1;fill-rule:nonzero;stroke:#000000;stroke-width:0.1;stroke-miterlimit:4;stroke-dasharray:none;stroke-opacity:1" />
  <path
     id="path2450"
     d="M 149.17513,263.56745 L 166.72712,245.46779"
     style="opacity:1;fill:none;fill-opacity:1;fill-rule:nonzero;stroke:#000000;stroke-width:0.1;stroke-miterlimit:4;stroke-dasharray:none;stroke-opacity:1" />
  <path
     id="path2452"
     d="M 146.11406,259.89416 L 163.66605,241.7945"
     style="opacity:1;fill:none;fill-opacity:1;fill-rule:nonzero;stroke:#000000;stroke-width:0.1;stroke-miterlimit:4;stroke-dasharray:none;stroke-opacity:1" />
  <path
     id="path2454"
     d="M 144.88963,256.22088 L 162.44162,238.12122"
     style="opacity:1;fill:none;fill-opacity:1;fill-rule:nonzero;stroke:#000000;stroke-width:0.1;stroke-miterlimit:4;stroke-dasharray:none;stroke-opacity:1" />
</svg>
