<?xml version="1.0" encoding="utf-8"?>
<!-- Generator: Adobe Illustrator 15.1.0, SVG Export Plug-In . SVG Version: 6.00 Build 0)  -->
<!DOCTYPE svg PUBLIC "-//W3C//DTD SVG 1.1//EN" "http://www.w3.org/Graphics/SVG/1.1/DTD/svg11.dtd">
<svg version="1.1"
	 id="svg2" xmlns:dc="http://purl.org/dc/elements/1.1/" xmlns:cc="http://web.resource.org/cc/" xmlns:svg="http://www.w3.org/2000/svg" xmlns:rdf="http://www.w3.org/1999/02/22-rdf-syntax-ns#" xmlns:sodipodi="http://sodipodi.sourceforge.net/DTD/sodipodi-0.dtd" xmlns:inkscape="http://www.inkscape.org/namespaces/inkscape" inkscape:output_extension="org.inkscape.output.svg.inkscape" sodipodi:docname="CommonMyna.svg" sodipodi:docbase="D:\Documents and Settings\shyamal\Desktop\BirdIllustrations" inkscape:version="0.45.1" sodipodi:version="0.32"
	 xmlns="http://www.w3.org/2000/svg" xmlns:xlink="http://www.w3.org/1999/xlink" x="0px" y="0px" width="127.967px"
	 height="138.768px" viewBox="0 0 127.967 138.768" enable-background="new 0 0 127.967 138.768" xml:space="preserve">
<sodipodi:namedview  bordercolor="#666666" pagecolor="#ffffff" id="base" inkscape:zoom="2.3872774" borderopacity="1.0" gridtolerance="10000" guidetolerance="10" objecttolerance="10" inkscape:pageopacity="0.0" inkscape:pageshadow="2" inkscape:cx="123.76959" inkscape:cy="91.457032" inkscape:document-units="px" inkscape:current-layer="layer1" inkscape:window-width="1280" inkscape:window-height="744" inkscape:window-x="0" inkscape:window-y="22">
	</sodipodi:namedview>
<g id="layer1" transform="translate(-289.02675,-547.93993)" inkscape:groupmode="layer" inkscape:label="Layer 1">
	<g id="g2227">
		<path id="path2221" sodipodi:nodetypes="cscsccscsssccccssccccccccscc" fill="#814C28" stroke="#000000" stroke-width="0.1" d="
			M367.542,621.601c0,0,5.86,6.522,9.454,11.793c3.594,5.27,4.922,10.434,4.922,10.434l9.85,10l0.266,1.352l15.707,16.757
			l-2.396,2.162l-4.525-1.351l-4.791,1.08l-20.766-19.459c0,0-4.552-2.469-9.609-3.686c-5.059-1.216-5.231-0.773-10.622-1.18
			c-5.391-0.405-6.655,0-6.655,0l0.266,10.811l-5.59-1.08l-8.253-12.162c0,0-7.42-4.459-14.641-11.082
			c-4.127-3.783-7.986-9.459-9.85-14.594c-1.197-3.297-2.826-8.576-2.396-17.838c0.266-5.743,4.525-19.189,4.525-19.189
			s1.598-6.284-0.799-11.352c-2.396-5.067-8.22-9.11-8.22-9.11l1.565-6.295c0,0,9.184-2.77,15.705-2.703
			c6.523,0.067,6.59,0.473,10.383,2.973c5.486,3.842,4.763,10.378,4.792,16.756c0.031,6.822-1.065,10.811,2.929,14.054
			C345.958,598.795,362.663,612.47,367.542,621.601z"/>
		
			<path id="path11079" sodipodi:nodetypes="ccccccccccccc" opacity="0.73" stroke="#000000" stroke-width="0.1" enable-background="new    " d="
			M369.335,648.33l16.571,16.054l3.369,3.165l3.764,1.625l3.398,1.54l2.77,1.711l4-0.57l2.303,2.024l2.162-1.938l-15.699-16.767
			l-2.54-0.002l-7.721-2.517L369.335,648.33z"/>
		<path id="path2223" sodipodi:nodetypes="ccccccccc" fill="none" stroke="#000000" stroke-width="0.2" d="M347.903,608.899
			c9.363,5.777,18.885,12.363,26.182,20.77c4.473,3.856,5.624,9.512,8.194,14.613c2.011,4.396,7.218,6.5,8.938,10.814
			c-15.371-5.251-29.404-9.343-43.821-16.911c-11.344-5.393-25.939-11.139-32.924-22.612c-4.116-5.932-3.918-16.031,3.201-19.478
			c6.768-2.588,13.072,2.39,18.988,5.031C340.41,603.717,344.156,606.308,347.903,608.899z"/>
		
			<linearGradient id="path2230_1_" gradientUnits="userSpaceOnUse" x1="703.4486" y1="86.9092" x2="703.6469" y2="52.2295" gradientTransform="matrix(-0.8988 0 0 -0.9125 951.7792 653.6263)">
			<stop  offset="0" style="stop-color:#000000"/>
			<stop  offset="1" style="stop-color:#000000;stop-opacity:0"/>
		</linearGradient>
		<path id="path2230" sodipodi:nodetypes="ccscsccsccc" opacity="0.86" fill="url(#path2230_1_)" enable-background="new    " d="
			M303.217,557.98l-0.292,5.682c0,0,5.99,4.048,8.387,9.116c2.396,5.068,0.814,11.349,0.814,11.349s-3.568,11.221-4.381,17.536
			c5.65-6.13,6.862-8.373,13.968-12.422c7.106-4.049,10.982-3.648,14.455-3.774c-1.157-2.748-0.596-6.199-0.618-11.092
			c-0.029-6.378,0.684-12.896-4.803-16.738c-3.793-2.5-3.842-2.926-10.363-2.994C313.862,554.576,303.217,557.98,303.217,557.98z"/>
		<path id="path4180" sodipodi:nodetypes="ccccccccc" fill="#FECB55" stroke="#000000" stroke-width="0.3" d="M348.109,660.314
			l-9.85,18.108h8.253l-1.597,2.703h-18.902l-2.129-2.703l11.447,0.271l8.785-19.189L348.109,660.314z"/>
		<path id="path5194" sodipodi:nodetypes="csccccccc" fill="#F9D13B" stroke="#000000" stroke-width="0.3" d="M306.817,560.236
			l2.583,0.83l-0.123,1.067l-2.091-0.593c-3.407-0.373-4.542-0.487-7.948-0.803c-2.244-0.06-6.318-0.027-6.318-0.027
			s2.19-1.312,3.812-1.896c2.407-0.867,4.495-0.618,7.011-1.067L306.817,560.236z"/>
		<path id="path5196" fill="#F9D13B" stroke="#000000" stroke-width="0.1" d="M296.855,560.355l5.535,0.711l6.641,1.186l2.705,2.134
			l-1.229,0.474l1.475,2.371l-1.229-0.83l-5.288-2.252l-5.411-1.422l-6.396-2.015L296.855,560.355z"/>
		<path id="path5198" sodipodi:nodetypes="ccsscscssscscc" fill="#FFC505" d="M309.892,561.519c0,0,2.336,1.264,3.074,2.099
			s-0.123,1.24-0.123,1.24s0.154,0.143,1.845,0s3.075-0.214,4.919-0.572c1.846-0.358,1.107-0.644,2.46-0.859s2.952,0,2.952,0
			s-0.492-1.741-1.723-2.767c-1.229-1.026-3.197-1.336-3.197-1.336s-0.861-1.073-2.459-1.24c-1.6-0.167-2.583-0.096-3.936,0.572
			c-1.354,0.668-1.477,2.099-1.477,2.099h-2.336V561.519z"/>
		<path id="path6169" fill="#1A1A1A" stroke="#000000" stroke-width="1" d="M305.587,560l-2.582-0.475l1.967-0.474L305.587,560z"/>
		<g id="g10065" transform="matrix(0.2926471,0,0,0.2971098,314.28845,391.64465)">
			
				<path id="path10059" sodipodi:open="true" sodipodi:end="6.2986478" sodipodi:start="0.032172804" sodipodi:ry="6.2833085" sodipodi:rx="6.2833085" sodipodi:cy="605.82837" sodipodi:cx="254.47398" sodipodi:type="arc" opacity="0.9812" fill="#AC9D93" stroke="#110808" stroke-width="0.2513" stroke-linecap="round" stroke-linejoin="round" enable-background="new    " d="
				M-2.863,571.506c-0.073-4.626,3.577-8.457,8.202-8.605c4.679-0.151,8.596,3.52,8.746,8.201c0.15,4.68-3.521,8.595-8.199,8.746
				c-4.682,0.151-8.596-3.52-8.75-8.201"/>
			
				<path id="path10057" sodipodi:open="true" sodipodi:end="6.2986478" sodipodi:start="0.032172804" sodipodi:ry="2.6180451" sodipodi:rx="2.6180451" sodipodi:cy="570.95605" sodipodi:cx="258.55814" sodipodi:type="arc" opacity="0.9812" fill="#550000" stroke="#110808" stroke-width="0.1457" stroke-linecap="round" stroke-linejoin="round" enable-background="new    " d="
				M-0.12,571.263c-0.05-3.468,2.463-6.34,5.646-6.45c3.224-0.113,5.92,2.641,6.023,6.15c0.103,3.509-2.426,6.446-5.646,6.559
				c-3.224,0.112-5.92-2.643-6.023-6.151"/>
			
				<path id="path10061" sodipodi:open="true" sodipodi:end="6.2986478" sodipodi:start="0.032172804" sodipodi:ry="3.769985" sodipodi:rx="3.6652632" sodipodi:cy="597.45062" sodipodi:cx="248.92374" sodipodi:type="arc" opacity="0.86" stroke="#110808" stroke-width="0.3391" stroke-linecap="round" stroke-linejoin="round" enable-background="new    " d="
				M2.156,571.118c-0.03-2.058,1.548-3.76,3.547-3.826c2.026-0.067,3.717,1.565,3.781,3.645c0.067,2.082-1.522,3.823-3.544,3.89
				s-3.717-1.565-3.781-3.645"/>
			
				<path id="path10063" sodipodi:open="true" sodipodi:end="6.2986478" sodipodi:start="0.032172804" sodipodi:ry="2.5133233" sodipodi:rx="2.3038797" sodipodi:cy="598.28845" sodipodi:cx="249.65678" sodipodi:type="arc" opacity="0.86" fill="#FFFFFF" stroke="#110808" stroke-width="0.289" stroke-linecap="round" stroke-linejoin="round" enable-background="new    " d="
				M4.465,566.914c-0.027-1.486,1.235-2.715,2.833-2.763c1.618-0.049,2.97,1.131,3.02,2.633c0.053,1.502-1.215,2.759-2.83,2.807
				c-1.618,0.049-2.97-1.131-3.023-2.633"/>
		</g>
		
			<path id="path10076" sodipodi:nodetypes="cccssccc" opacity="0.638" fill="#1A1A1A" stroke="#000000" stroke-width="0.2" enable-background="new    " d="
			M315.1,616.894c8.142,10.961,22.501,17.585,31.251,21.194c14.892,6.676,43.13,17.754,44.417,17.354
			c1.92-0.596-3.381-4.997-7.051-9.647c-3.67-4.651-3.45-6.685-5.547-10.57c-5.451-12.528-22.068-11.157-32.572-13.182
			c-10.778-2.771-25.742-2.252-33.298-12.766C312.31,611.819,314.152,614.543,315.1,616.894z"/>
		<path id="path10096" sodipodi:nodetypes="cssccccc" fill="#FFFFFF" d="M327.602,628.485l-2.636-5.542l-2.525-2.918l3.59,1.654
			c0,0-0.963,0.408,3.225,4.182c4.189,3.775,10.441,5.539,12.465,7.402s-0.377,2.484-0.377,2.484L327.602,628.485z"/>
		<path id="path11072" stroke="#000000" stroke-width="0.2" d="M342.734,636.218c1.564,0.727,3.127,1.436,4.605,2.139
			c14.417,7.568,28.444,11.658,43.815,16.908c-1.561-3.912-6.004-6.004-8.314-9.638l-0.73-0.143l-2.809,2.081l-5.083,0.2
			l-12.61-4.591l-18.257-8.982L342.734,636.218z"/>
		<path id="path11081" fill="#CCCCCC" d="M369.014,648.169l-13.176-4.969l0.188,1.529l3.576,5.159l5.459,0.573l9.601,3.822
			L369.014,648.169z"/>
		<path id="path11125" sodipodi:nodetypes="ccccccc" fill="#FFFFFF" d="M396.083,673.424l5.856-0.271l-4.525-1.621l-3.727-1.622
			l-4.26-4.054l-1.331,0.541L396.083,673.424z"/>
		<path id="path12096" fill="#FFFFFF" d="M405.666,674.505l2.396-2.703l-2.662,1.622l-2.396-1.892l-1.863,1.081L405.666,674.505z"/>
	</g>
</g>
</svg>
